<?xml version="1.0" encoding="UTF-8"?>
<!DOCTYPE svg PUBLIC "-//W3C//DTD SVG 1.1//EN" "http://www.w3.org/Graphics/SVG/1.1/DTD/svg11.dtd">
<!-- Creator: CorelDRAW -->
<svg xmlns="http://www.w3.org/2000/svg" xml:space="preserve" width="91.44mm" height="33.8666mm" version="1.1" style="shape-rendering:geometricPrecision; text-rendering:geometricPrecision; image-rendering:optimizeQuality; fill-rule:evenodd; clip-rule:evenodd"
viewBox="0 0 9144 3386.66"
 xmlns:xlink="http://www.w3.org/1999/xlink"
 xmlns:xodm="http://www.corel.com/coreldraw/odm/2003">
 <defs>
  <style type="text/css">
   <![CDATA[
    .fil0 {fill:#FEFEFE}
   ]]>
  </style>
 </defs>
 <g id="Camada_x0020_1">
  <metadata id="CorelCorpID_0Corel-Layer"/>
  <g id="_1556538316880">
   <path class="fil0" d="M5092.38 1776.01c0,54.07 -4.52,110.57 -14.7,155.48 -5.14,22.65 -20.37,34.76 -43.5,41.61 -14.85,4.39 -59.3,10.92 -76.53,10.92l0 -957.31c53.58,0 125.37,2.98 127.64,66.18 1.1,30.55 4.8,59.02 4.73,92.19 -0.05,19.4 2.49,29.86 2.42,47.22l-2.42 420.79c0.09,43.18 2.36,78.94 2.36,122.92zm-557.84 -995.13l0 1446.61c0,5.44 1.64,7.09 7.09,7.09l120.55 0c9.98,0 13.15,-1.72 19.13,-1.9 7.22,-0.21 10.3,1.9 21.05,1.9l271.84 0c33.06,0 58.39,-2.37 89.82,-2.37 140.83,0.04 269.7,2.95 374.85,-78.99 40.86,-31.84 63.65,-106.45 69.35,-157.57 1.49,-13.42 2.64,-31.06 4.26,-43 1.97,-14.4 0.37,-29.73 0.56,-44.36 0.18,-14.68 2.5,-24.72 2.46,-42.45l2.36 -453.84c0,-71.65 -0.92,-160.92 -4.74,-231.64 -0.83,-15.27 0.55,-31.94 0.09,-47.36 -2.66,-88.89 -7.36,-151.18 -62.86,-225.52 -11.93,-16 -31.68,-35.06 -47.62,-46.94 -55.75,-41.51 -143.49,-62.35 -216.19,-69.81 -15.09,-1.55 -28.47,-1.57 -43.51,-3.76 -19.23,-2.8 -52.53,-2.65 -67.07,-3.85l-70.04 -3.24c-26.73,-4.05 -64.54,-0.39 -91.16,-3.38l-373.13 -2.71c-5.45,0 -7.09,1.64 -7.09,7.09z"/>
   <path class="fil0" d="M5619.5 780.88l0 666.57c0,98.87 2.36,190.88 2.36,288.38 0,22.82 2.39,181.57 6.67,210.8 8.75,59.79 26.99,106.98 62.52,154.93 11.1,14.97 22.46,24.83 35.4,37.88 53.16,53.64 166.21,97.89 251.98,112.04 84.58,13.95 182.2,13.91 267.49,-0.33 81.72,-13.65 151.75,-43.76 205.66,-85.08 103.97,-79.69 129.97,-177.21 129.96,-307.33 0,-48.89 2.37,-93.36 2.37,-144.18l0 -940.77 -416.02 0c-11.38,0 -7.11,22.28 -7.09,33.09l0 286.01c0,59.18 2.36,96.84 2.36,156.01l0 574.39c0.03,44.05 -2.26,112.11 -10.4,155.06 -2.67,14.11 -5.99,17.43 -14.93,25.25 -19.15,16.75 -78.54,20.12 -87.19,-25.25 -2.22,-11.66 -3.76,-25.15 -5.04,-35.15l-3 -37.17c-2.76,-51.12 0.01,-111.01 0.01,-163.11l0 -933.68c0.01,-11.04 4.45,-35.45 -7.09,-35.45l-408.93 0c-5.45,0 -7.09,1.64 -7.09,7.09z"/>
   <path class="fil0" d="M395.62 1711.6c0.31,21.07 0.75,35.36 1.37,39.41l5.74 124.26c0.8,16.97 4.55,41.96 7.4,58.79 15.53,91.61 47.84,178.91 126.33,232.95 128.73,88.63 242.86,95.93 402.82,95.93 128.09,0 289.61,-57.34 375.14,-159.06 23.75,-28.25 36.33,-47.67 48.89,-83.49 24.85,-70.89 32.19,-159.3 32.17,-237.29 0,-24.66 2.43,-40.15 2.37,-63.81 -0.05,-22.85 0,-45.71 0,-68.56l-418.38 0c-11.58,0 -7.09,24.13 -7.09,47.28 0,61.54 3.22,217.35 -7.21,264.62 -11.21,50.79 -37.35,52.12 -77.89,52.12 -36.13,0 -53.42,-22.19 -58.13,-55.33 -4.87,-34.28 -8.06,-70.24 -8.06,-107.77l-0.08 -676.11 6.53 -104.57c4.44,-33.14 -3.37,-34.79 17.7,-55.57 24.09,-23.77 70.19,-25.56 97.82,-6.65 11.84,8.11 19.25,17.98 22.56,34.17l6.77 78.33c0.47,8.87 -0.01,19.32 -0.01,28.37l0 262.38 425.47 0c0,-139.58 10.59,-359.76 -58.05,-473.8 -13.48,-22.41 -36.79,-50.63 -56.11,-66.8 -47.58,-39.84 -94.77,-65.22 -157.99,-87.84 -83.5,-29.87 -175.89,-33.41 -264.42,-33.41 -76.1,0 -161.36,20.44 -215.45,42.2 -33.86,13.63 -75.99,32.68 -103.12,55.25 -39.04,32.47 -47.87,38.99 -80.6,82.5 -28,37.24 -47.8,88.74 -55.76,138.06l-8.44 121.57c-1.31,43.56 -2.26,81.63 -2.29,125.62l0 2.1 0 394.15z"/>
   <path class="fil0" d="M1416.76 2234.58l385.29 0c9.55,0 8.52,-18.01 9.66,-28.16l21.28 -177.27c6.14,-65.16 19.72,-146.02 26.01,-212.74 7.76,-82.46 25.21,-198.44 35.04,-284.06l24.87 -211.5c1.8,-12.97 2.7,-23.51 3.91,-36.28l22.35 -176.43c12.6,48.75 54.08,434.79 66.54,529.12 1.94,14.66 6.63,69.93 10.17,77.3l-85.1 0c-6.79,14.15 -12.07,96.3 -15.53,121.56 -3.03,22.08 -3.63,39.84 -6.41,62.14 -2.13,17.04 -6.42,43.1 -6.42,62.12l141.82 0 29.08 235.67c1.27,9.58 4.02,24.4 4.02,36.16 44.44,0 80.69,2.37 125.27,2.37l271.83 0 -16.21 -104.34c-5.96,-35.84 -11.51,-69.18 -17.55,-105.36l-200.6 -1212.92c-7.69,-46.03 12,-35.81 -87.11,-35.81l-59.08 -2.37c-48.01,-2.6 -164.74,0.01 -222.2,0.01 -82.37,0 -157.16,3.03 -238.95,2.15 -19.58,-0.21 -13.98,-5.31 -20.36,38.74 -2.75,19.02 -5.18,35.88 -7.66,53.79 -33.89,244.63 -74.09,493.97 -108.46,737.76l-89.88 607.51c-1.66,10.69 -6.17,20.84 4.38,20.84z"/>
   <path class="fil0" d="M6673.73 1069.26l250.55 0 0 1162.95c28.83,0 48.93,2.37 78.01,2.37l340.38 0c5.44,0 7.09,-1.65 7.09,-7.09l0 -1158.23 250.56 0 0 -295.47 -926.59 0 0 295.47z"/>
   <path class="fil0" d="M3331.39 780.88l0 1446.61c0,5.44 1.65,7.09 7.09,7.09l666.58 0c5.45,0 7.09,-1.65 7.09,-7.09l0 -281.29c0,-5.44 -1.64,-7.09 -7.09,-7.09l-248.19 0 0 -1158.23c0,-5.45 -1.65,-7.09 -7.1,-7.09l-411.29 0c-5.44,0 -7.09,1.64 -7.09,7.09z"/>
   <path class="fil0" d="M2551.36 780.88l0 1446.61c0,5.44 1.64,7.09 7.09,7.09l673.67 0 0 -295.47 -257.65 0 0 -1165.32 -416.02 0c-5.45,0 -7.09,1.64 -7.09,7.09z"/>
   <path class="fil0" d="M7971.42 1754.74l0 486.93 390.02 0c0,-45.02 -2.69,-392.53 1.37,-419.38 7.22,-47.7 -1.23,-117.11 -15.26,-162.39 -18.29,-59.07 -50.05,-145.82 -65.97,-203.49 -12.73,-46.09 -30.43,-89.97 -43.9,-135.75l-174.07 -544.51c-52.28,0 -96.52,-2.36 -148.92,-2.36l-238.73 0c0.31,13.87 83.62,269.28 94.27,302.84l95.69 303.77c13.37,40.96 25.68,82.03 39.03,121.71 6.63,19.7 12.96,40.3 18.92,59.08 17.86,56.28 47.55,135.25 47.55,193.55z"/>
   <path class="fil0" d="M8399.26 1603.46c0.75,-8.91 4.68,-17.58 7.41,-25.68l262.06 -803.99c-120.42,0 -241.31,1.06 -361.67,-0.02 -29,-0.26 -23.97,-10.3 -37.22,52.61 -8.07,38.34 -49.93,198.49 -47.34,225.78 0.71,7.43 7.04,25.75 9.76,35.18 40.35,140.18 97.07,312.02 142.45,448.49 4.07,12.26 7.58,21.31 11.22,33.68 2.89,9.8 5.78,28.41 13.33,33.95z"/>
   <path class="fil0" d="M4014.51 1196.9c38.12,8.88 26.46,28.01 30.61,78.12 1.42,17.16 -1.17,36.97 0.25,54.12 2.49,30.15 1.66,126.18 -1.84,152.05 -11.04,81.43 10.19,50.32 -31.38,70.27l-2.36 -132.37c0.04,-18.56 -2.43,-28.86 -2.45,-44.83 -0.04,-32.57 2.45,-56.86 2.45,-89.91 0,-30.86 2.39,-59.45 4.72,-87.45zm-127.64 219.82c0,46.35 0.48,121.97 21.34,158.31 19.54,34.03 65.21,59.16 106.3,59.16 37.14,0 65.96,-1.67 96.94,-23.62 59.07,-41.84 47.3,-84.84 54,-144.55 2.3,-20.48 -1.19,-55.9 0.69,-72.59 4.68,-41.5 -1.76,-184.02 -12.91,-207.61 -10.51,-22.27 -26.55,-41.19 -46.59,-52.68 -71.18,-40.8 -183.63,-27.63 -211.72,71.8 -9.13,32.28 -4.46,64.71 -5.61,103.13l-2.44 51.92c0,18.92 0,37.82 0,56.73z"/>
   <path class="fil0" d="M4203.61 1624.73l113.46 0 0 -212.73 70.92 0 0 -92.19 -70.92 0 0 -94.55 70.92 0c5.44,0 7.09,-1.64 7.09,-7.09l0 -94.55 -191.47 0 0 501.11z"/>
   <path class="fil0" d="M8444.17 2194.39c0,-101.9 144.19,-93.31 144.19,-4.72 0,54.62 -67.87,89.8 -119.64,51.09 -11.17,-8.35 -24.55,-27.96 -24.55,-46.37zm80.02 80.37l-19.16 0c-19.8,-1.93 -38.75,-9.89 -53.23,-24.17 -27.2,-26.84 -26.54,-40.55 -26.54,-72.74 0,-35.54 42.55,-75.64 85.1,-75.64 99.66,0 120.58,101.98 71.54,147.18 -16.06,14.8 -36.71,23.37 -57.71,25.37z"/>
   <path class="fil0" d="M8510.36 2182.57l-14.18 0 0 -23.63 21.27 0c13.94,0 14.18,4.99 14.18,18.91 -8.46,1.97 -11.1,4.72 -21.27,4.72zm-35.46 52.01l21.28 0 0 -35.46c15.38,0 18.28,-0.06 26.55,13.64 3.43,5.69 9.71,15.99 11.27,21.82l26 0c-7.79,-14.71 -16.27,-29.68 -28.37,-40.19 35.94,-8.37 31.26,-52 -11.82,-52l-44.91 0 0 92.19z"/>
  </g>
 </g>
</svg>
