<?xml version="1.0" encoding="UTF-8"?>
<!DOCTYPE svg PUBLIC "-//W3C//DTD SVG 1.1//EN" "http://www.w3.org/Graphics/SVG/1.1/DTD/svg11.dtd">
<!-- Creator: CorelDRAW -->
<svg xmlns="http://www.w3.org/2000/svg" xml:space="preserve" width="91.44mm" height="91.44mm" version="1.1" style="shape-rendering:geometricPrecision; text-rendering:geometricPrecision; image-rendering:optimizeQuality; fill-rule:evenodd; clip-rule:evenodd"
viewBox="0 0 9144 9144"
 xmlns:xlink="http://www.w3.org/1999/xlink"
 xmlns:xodm="http://www.corel.com/coreldraw/odm/2003">
 <defs>
  <style type="text/css">
   <![CDATA[
    .fil0 {fill:white}
   ]]>
  </style>
 </defs>
 <g id="Camada_x0020_1">
  <metadata id="CorelCorpID_0Corel-Layer"/>
  <g id="_2633719196352">
   <path class="fil0" d="M3461.42 7526.57l470.23 149.6c13.38,4.49 28.71,8.37 43.12,13.22 165.09,55.56 345.96,107.79 512.89,163.31 58.48,19.43 113.24,34.22 171.58,53.79l128.44 40.61c13.98,4.29 31.36,12.46 45.99,13.69l0 -4925.51c0,-142 -14.48,-297.82 64.25,-416.36 28.58,-43.04 78.67,-84.15 141.25,-84.15 44.91,0 110.64,22.04 140.3,38.69 142.04,79.72 169.02,211.53 188.87,354.73 10.46,75.49 5.61,627.47 5.61,716.98 0,481.73 0,963.45 0,1445.16 15,7.94 29.32,12.92 45.31,20.98 16.01,8.09 31.35,14.42 48.44,21.18 104.93,41.47 203.5,77.77 320.55,97.09 127.64,21.07 131.93,16.83 255.36,16.65 133.15,-0.18 309.74,-62.8 417.52,-139.34 13.68,-9.7 26.68,-19.57 39.78,-29.81l90.39 -81.97 78 -97.68c19.03,-27.86 38.32,-55.64 53.71,-85.49 95.64,-185.5 132.01,-308.99 161.4,-531.36 6.31,-47.73 14.28,-141.19 14.26,-194.57 -0.01,-10.84 -0.43,-22.52 -0.11,-33.25 0.49,-16.36 3.04,-16.58 3.53,-32.94l-9.57 -269.07c-2.29,-21.02 -3.25,-45.64 -3.77,-65.84 -1.49,-58.58 -31.03,-247.03 -42.81,-305.22 -15.7,-77.61 -35.12,-148.94 -58.72,-219.7 -38.47,-115.4 -111.72,-275.35 -184.48,-372.37 -10.19,-13.58 -17.75,-24.73 -27.96,-38.33l-94.55 -114.28c-197.74,-195.5 -249.9,-226.57 -475.09,-360.18l-184.68 -93.75c-65.69,-28.05 -118.89,-55.02 -193.65,-84.79 -67.21,-26.75 -132.01,-52.73 -201.93,-76.48l-313.21 -104.43c-18.19,-6.1 -34.15,-11.96 -52.61,-17.01l-481.01 -145.45c-220.86,-64.42 -432.57,-120.52 -657.87,-177.4l-169.1 -39.74c-21.1,-4.81 -36.02,-8.71 -56.79,-12.81 -32.66,-6.42 -203.31,-45.54 -232.87,-45.54l0 6049.14z"/>
   <path class="fil0" d="M5088.89 5746.63l0 822.03 1518.79 -532.97c215.72,-60.14 520.51,-94.03 744.43,-33.17 44.04,11.96 153.13,51.21 153.13,108.72 0,39.15 -12.32,56.95 -38.93,83.7 -19.16,19.27 -36.78,30.74 -61.53,44.54 -47.08,26.25 -90.67,44.45 -146.08,62.74l-696.21 248.47c-26.95,10.43 -52.9,18.2 -78.57,27.48 -51.95,18.77 -105.24,37.32 -155.84,56.29l-850.99 302.5c-90.85,30.25 -179.81,66.93 -270.92,97 -15.07,4.98 -24.89,8.39 -39.13,13.91 -25.11,9.72 -54.42,16.52 -78.15,27.92l0 792.19c20.34,-1.7 41.75,-12.88 60.08,-19.48 20.24,-7.27 39.9,-14.2 60.65,-22.21 40.85,-15.8 78.62,-27.33 119.32,-43.09l241.84 -86.3c41.11,-14.25 77.89,-29.55 119.31,-43.12l241.19 -86.96c41.08,-15.39 82.32,-27.68 122.16,-43.57 18.15,-7.23 38.88,-14.39 58.39,-21.16 100.8,-34.94 199.68,-74.32 299.98,-107.71l483.15 -173.14c99.73,-33.21 200.47,-73.2 299.98,-107.71l602.4 -216.31c119.19,-42.84 241.75,-84.53 358.03,-132.53 20.4,-8.43 37.23,-17.32 57.28,-25.6 142.54,-58.86 397.18,-209.63 469.32,-349.38 31.56,-61.13 39.73,-93.69 39.73,-165.78 0,-63.12 -35.82,-138.09 -75.47,-183.06 -15.06,-17.1 -25.18,-28.63 -41.37,-44.81 -29.56,-29.57 -60.99,-53 -94.36,-78 -17.58,-13.17 -32.69,-22.42 -52.09,-34.09 -10.65,-6.41 -16.11,-10.14 -27.28,-15.82 -161.34,-81.76 -177.22,-85.35 -333.86,-140.13 -22.66,-7.92 -39.61,-15.53 -62.94,-23.24l-131.75 -43.92c-194.08,-65.52 -507.95,-125.82 -712.51,-149.29 -26.14,-3 -50.38,-5.09 -77.38,-8.79 -24.35,-3.35 -55.44,-6.87 -78.19,-7.99 -27.58,-1.37 -54.33,-5.45 -79.48,-6.71l-251.92 -9.94c-272.86,0 -476.47,8.79 -742.01,53.5 -153.37,25.82 -302.74,52.39 -453.22,90.38 -128.56,32.45 -252.9,66.67 -377.99,109.24 -12.35,4.21 -30.83,10.49 -40.99,15.37z"/>
   <path class="fil0" d="M2351.03 7221.62c263.08,0 503.39,-23 753.83,-64.87l76.97 -12.52c10.83,-2 17.74,-1.15 17.74,-12.1l0 -702.7c-16.42,0.38 -50.71,16.33 -67.52,21.99 -24.35,8.21 -44.74,16.49 -67.96,24.84 -126.61,45.51 -281.73,99.22 -406.2,147.35 -23.21,8.96 -43.02,14.59 -65.87,23.63l-138.23 47.39c-210.67,58.28 -513.92,86.96 -725.23,29.13 -67.56,-18.49 -156.46,-50.76 -156.46,-125.28 0,-96.46 228.41,-170.6 304.55,-195.94 16.73,-5.58 36.76,-12.92 53.84,-19.09l155.85 -56.28c86.62,-32.36 178.95,-61.51 266.09,-95.21 17.82,-6.89 33.89,-12.72 51.19,-18.42 18,-5.92 35.91,-13.08 53.92,-18.99 112.92,-37.17 250.88,-90.56 368.76,-131.74l373.27 -133.87 0 -795.51 -81.9 27.49c-67.54,26.74 -171.36,59.03 -242.46,85.69l-119.36 43.06c-13.89,4.58 -26.83,9 -41.62,14.72l-323.04 114.49c-25.75,8.57 -54.58,20.44 -80.32,29.04l-242.06 86.09c-27.71,10.39 -52.41,18.41 -81.18,28.21l-241.97 86.19c-55.25,18.76 -105.87,37.68 -161.59,57.17 -54.7,19.12 -106.82,38.56 -160.71,58.05l-161.57 57.18c-187.15,61.82 -364.82,137.42 -540.48,225.2l-70.66 38.73c-75.22,38.84 -202.85,123.53 -252.43,185.1 -34.75,43.15 -58.65,83.12 -72.22,146.53 -22.73,106.18 29.14,220.84 100.13,293.93 7.16,7.36 7.2,9.07 13.34,16.49 17.44,21.05 97.74,82.19 121,97.77 64.06,42.86 143.87,81.14 217.54,110.6 54.9,21.95 188.85,65.75 246.48,81.66 26.27,7.27 56.63,17.48 83.95,25.44 28.82,8.39 56.42,15.38 85.4,23.97 83.15,24.7 265.71,64.78 356.45,81.09 246.19,44.25 512.58,74.3 800.74,74.3z"/>
   <path class="fil0" d="M7946.08 7629.32c0,-143.41 118.59,-265.17 251.91,-265.17l26.52 0c130.8,0 251.91,121.11 251.91,251.91 0,52.52 -2.62,81.81 -26.5,129.29 -20.01,39.78 -17.11,30.52 -38.38,57.74 -6.33,8.1 -7.98,10.9 -15.43,17.72l-35.19 27.78c-169.19,117.09 -414.84,-2.93 -414.84,-219.27zm-56.35 0c0,129.58 76.23,235.81 188.88,291.75 152.56,75.74 344.49,4.22 423.27,-153.59 101.23,-202.79 -52.8,-459.67 -277.37,-459.67 -82.77,0 -166.17,21.47 -222.94,78.69 -39.44,39.76 -51.33,46.83 -83.17,112.4 -15.05,30.99 -28.67,85.94 -28.67,130.42z"/>
   <path class="fil0" d="M8231.14 7599.49l-92.81 0 0 -99.44c33.34,0 123.19,-5.66 143.32,9.15 15.38,11.33 45.2,90.29 -50.51,90.29zm-155.79 202.2l62.98 0 0 -145.85c137.37,0 147.81,-13.4 155.31,56.82 10.38,97.22 -20.21,89.03 73.4,89.03 26.56,0 -5.18,-33.67 -8.22,-48.13 -8.85,-42.2 12.61,-102.43 -34.88,-127.54 7.86,-11.74 57.44,-49.41 32.87,-119.04 -13.34,-37.79 -51.03,-63.28 -102.47,-63.28l-178.99 0 0 357.99z"/>
  </g>
 </g>
</svg>
