<?xml version="1.0" encoding="UTF-8"?>
<!DOCTYPE svg PUBLIC "-//W3C//DTD SVG 1.1//EN" "http://www.w3.org/Graphics/SVG/1.1/DTD/svg11.dtd">
<!-- Creator: CorelDRAW -->
<svg xmlns="http://www.w3.org/2000/svg" xml:space="preserve" width="84.6666mm" height="25.3998mm" version="1.1" style="shape-rendering:geometricPrecision; text-rendering:geometricPrecision; image-rendering:optimizeQuality; fill-rule:evenodd; clip-rule:evenodd"
viewBox="0 0 8466.66 2539.98"
 xmlns:xlink="http://www.w3.org/1999/xlink"
 xmlns:xodm="http://www.corel.com/coreldraw/odm/2003">
 <defs>
  <style type="text/css">
   <![CDATA[
    .str0 {stroke:#51C74F;stroke-width:16.93;stroke-miterlimit:22.9256}
    .fil0 {fill:#51C74F}
    .fil1 {fill:#1A1A1A;fill-rule:nonzero}
   ]]>
  </style>
 </defs>
 <g id="Camada_x0020_1">
  <metadata id="CorelCorpID_0Corel-Layer"/>
  <polygon class="fil0 str0" points="145.57,330.32 145.57,1436.71 993.8,2284.94 8301.57,2284.94 8301.57,1126.05 7496.32,320.8 "/>
  <path class="fil1" d="M2176.59 1187.44c0,-62.3 14.05,-118.33 42.14,-168.1 28.09,-49.78 66.42,-88.71 114.97,-116.8 48.55,-28.1 102.45,-42.14 161.69,-42.14 69.62,0 130.39,16.79 182.3,50.38 51.91,33.59 89.77,81.23 113.59,142.91l-99.85 0c-17.71,-38.47 -43.21,-68.09 -76.49,-88.86 -33.29,-20.76 -73.14,-31.15 -119.55,-31.15 -44.59,0 -84.59,10.39 -120.01,31.15 -35.42,20.77 -63.21,50.23 -83.36,88.4 -20.16,38.17 -30.23,82.91 -30.23,134.21 0,50.69 10.07,95.12 30.23,133.29 20.15,38.17 47.94,67.63 83.36,88.4 35.42,20.76 75.42,31.15 120.01,31.15 46.41,0 86.26,-10.23 119.55,-30.69 33.28,-20.46 58.78,-49.93 76.49,-88.4l99.85 0c-23.82,61.07 -61.68,108.25 -113.59,141.53 -51.91,33.28 -112.68,49.93 -182.3,49.93 -59.24,0 -113.14,-13.9 -161.69,-41.69 -48.55,-27.78 -86.88,-66.41 -114.97,-115.88 -28.09,-49.47 -42.14,-105.35 -42.14,-167.64zm957.3 327.95c-47.02,0 -89.62,-10.68 -127.79,-32.06 -38.17,-21.37 -68.1,-51.76 -89.78,-91.15 -21.68,-39.39 -32.52,-85.04 -32.52,-136.95 0,-51.3 11.15,-96.65 33.44,-136.04 22.29,-39.39 52.67,-69.62 91.15,-90.69 38.47,-21.07 81.53,-31.61 129.17,-31.61 47.63,0 90.69,10.54 129.16,31.61 38.48,21.07 68.86,51.15 91.15,90.23 22.29,39.09 33.44,84.59 33.44,136.5 0,51.91 -11.45,97.56 -34.35,136.95 -22.91,39.39 -53.9,69.78 -92.99,91.15 -39.08,21.38 -82.44,32.06 -130.08,32.06zm0 -73.28c29.93,0 58.02,-7.02 84.28,-21.07 26.26,-14.05 47.48,-35.12 63.67,-63.21 16.18,-28.09 24.27,-62.29 24.27,-102.6 0,-40.31 -7.94,-74.51 -23.81,-102.6 -15.88,-28.1 -36.65,-49.01 -62.3,-62.75 -25.65,-13.75 -53.44,-20.62 -83.36,-20.62 -30.54,0 -58.48,6.87 -83.82,20.62 -25.35,13.74 -45.65,34.65 -60.92,62.75 -15.27,28.09 -22.9,62.29 -22.9,102.6 0,40.92 7.48,75.42 22.44,103.52 14.96,28.09 34.96,49.01 60,62.75 25.04,13.74 52.53,20.61 82.45,20.61zm971.04 -446.13c39.09,0 73.9,8.09 104.44,24.27 30.53,16.19 54.66,40.46 72.37,72.83 17.71,32.37 26.56,71.76 26.56,118.18l0 295.89 -82.44 0 0 -283.98c0,-50.08 -12.37,-88.41 -37.1,-114.97 -24.74,-26.57 -58.17,-39.85 -100.31,-39.85 -43.37,0 -77.87,13.89 -103.52,41.68 -25.65,27.79 -38.48,67.94 -38.48,120.46l0 276.66 -82.44 0 0 -283.98c0,-50.08 -12.37,-88.41 -37.11,-114.97 -24.73,-26.57 -58.17,-39.85 -100.31,-39.85 -43.36,0 -77.86,13.89 -103.51,41.68 -25.65,27.79 -38.48,67.94 -38.48,120.46l0 276.66 -83.36 0 0 -502.01 83.36 0 0 72.37c16.49,-26.26 38.63,-46.42 66.42,-60.46 27.79,-14.05 58.47,-21.07 92.06,-21.07 42.14,0 79.4,9.46 111.77,28.4 32.36,18.93 56.49,46.72 72.37,83.36 14.04,-35.42 37.25,-62.91 69.62,-82.45 32.37,-19.54 68.4,-29.31 108.09,-29.31zm423.23 101.68c16.49,-28.7 41.07,-52.67 73.75,-71.91 32.67,-19.24 70.69,-28.86 114.05,-28.86 44.58,0 85.04,10.69 121.38,32.07 36.34,21.37 64.89,51.45 85.65,90.23 20.77,38.78 31.15,83.82 31.15,135.12 0,50.69 -10.38,95.88 -31.15,135.58 -20.76,39.7 -49.31,70.54 -85.65,92.53 -36.34,21.98 -76.8,32.97 -121.38,32.97 -42.75,0 -80.46,-9.61 -113.14,-28.85 -32.67,-19.24 -57.56,-43.21 -74.66,-71.91l0 330.7 -83.36 0 0 -740.19 83.36 0 0 92.52zm340.78 156.65c0,-37.86 -7.63,-70.84 -22.9,-98.93 -15.27,-28.1 -35.88,-49.47 -61.83,-64.13 -25.96,-14.66 -54.51,-21.99 -85.66,-21.99 -30.53,0 -58.78,7.49 -84.74,22.45 -25.95,14.96 -46.72,36.64 -62.29,65.04 -15.57,28.4 -23.36,61.22 -23.36,98.48 0,37.86 7.79,70.99 23.36,99.39 15.57,28.4 36.34,50.08 62.29,65.04 25.96,14.97 54.21,22.45 84.74,22.45 31.15,0 59.7,-7.48 85.66,-22.45 25.95,-14.96 46.56,-36.64 61.83,-65.04 15.27,-28.4 22.9,-61.83 22.9,-100.31zm278.49 -167.64c14.66,-28.7 35.58,-51 62.75,-66.87 27.18,-15.88 60.31,-23.82 99.4,-23.82l0 86.11 -21.99 0c-93.44,0 -140.16,50.69 -140.16,152.07l0 272.99 -83.36 0 0 -502.01 83.36 0 0 81.53zm227.19 167.64c0,-51.3 10.38,-96.34 31.15,-135.12 20.76,-38.78 49.31,-68.86 85.65,-90.23 36.34,-21.38 76.8,-32.07 121.38,-32.07 43.97,0 82.14,9.47 114.51,28.4 32.37,18.93 56.49,42.75 72.37,71.46l0 -91.61 84.28 0 0 502.01 -84.28 0 0 -93.44c-16.49,29.31 -41.07,53.59 -73.74,72.83 -32.68,19.24 -70.69,28.85 -114.05,28.85 -44.59,0 -84.89,-10.99 -120.93,-32.97 -36.03,-21.99 -64.43,-52.83 -85.19,-92.53 -20.77,-39.7 -31.15,-84.89 -31.15,-135.58zm425.06 0.92c0,-37.87 -7.63,-70.85 -22.9,-98.94 -15.27,-28.09 -35.88,-49.62 -61.83,-64.58 -25.96,-14.96 -54.51,-22.45 -85.66,-22.45 -31.15,0 -59.54,7.33 -85.19,21.99 -25.65,14.66 -46.11,36.03 -61.38,64.13 -15.27,28.09 -22.9,61.07 -22.9,98.93 0,38.48 7.63,71.91 22.9,100.31 15.27,28.4 35.73,50.08 61.38,65.04 25.65,14.97 54.04,22.45 85.19,22.45 31.15,0 59.7,-7.48 85.66,-22.45 25.95,-14.96 46.56,-36.64 61.83,-65.04 15.27,-28.4 22.9,-61.53 22.9,-99.39zm308.72 -168.56c14.66,-28.7 35.58,-51 62.75,-66.87 27.18,-15.88 60.31,-23.82 99.4,-23.82l0 86.11 -21.99 0c-93.44,0 -140.16,50.69 -140.16,152.07l0 272.99 -83.36 0 0 -502.01 83.36 0 0 81.53z"/>
 </g>
</svg>
