<?xml version="1.0" encoding="UTF-8"?>
<!DOCTYPE svg PUBLIC "-//W3C//DTD SVG 1.1//EN" "http://www.w3.org/Graphics/SVG/1.1/DTD/svg11.dtd">
<!-- Creator: CorelDRAW -->
<svg xmlns="http://www.w3.org/2000/svg" xml:space="preserve" width="84.6666mm" height="25.3998mm" version="1.1" style="shape-rendering:geometricPrecision; text-rendering:geometricPrecision; image-rendering:optimizeQuality; fill-rule:evenodd; clip-rule:evenodd"
viewBox="0 0 8466.66 2539.98"
 xmlns:xlink="http://www.w3.org/1999/xlink"
 xmlns:xodm="http://www.corel.com/coreldraw/odm/2003">
 <defs>
  <style type="text/css">
   <![CDATA[
    .str0 {stroke:#51C74F;stroke-width:33.87;stroke-miterlimit:22.9256}
    .str1 {stroke:#51C74F;stroke-width:16.93;stroke-miterlimit:22.9256}
    .fil1 {fill:none}
    .fil2 {fill:#51C74F}
    .fil0 {fill:#51C74F;fill-rule:nonzero}
   ]]>
  </style>
 </defs>
 <g id="Camada_x0020_1">
  <metadata id="CorelCorpID_0Corel-Layer"/>
  <path class="fil0" d="M2838.9 1008.82l-242.76 638.51 -96.92 0 -242.76 -638.51 89.54 0 202.15 550.57 202.14 -550.57 88.61 0zm553.82 368.27c0,15.88 -0.93,32.67 -2.77,50.38l-404.29 0c3.08,49.47 20.16,88.1 51.23,115.88 31.07,27.79 68.77,41.69 113.07,41.69 36.3,0 66.61,-8.4 90.91,-25.2 24.32,-16.79 41.39,-39.23 51.24,-67.33l90.45 0c-13.53,48.25 -40.61,87.49 -81.22,117.72 -40.62,30.23 -91.08,45.34 -151.38,45.34 -48,0 -90.91,-10.68 -128.76,-32.06 -37.84,-21.37 -67.54,-51.76 -89.08,-91.15 -21.53,-39.39 -32.3,-85.04 -32.3,-136.95 0,-51.91 10.46,-97.41 31.38,-136.5 20.92,-39.08 50.3,-69.16 88.15,-90.23 37.84,-21.07 81.38,-31.61 130.61,-31.61 48,0 90.45,10.39 127.38,31.15 36.92,20.76 65.38,49.32 85.38,85.65 19.99,36.34 30,77.41 30,123.22zm-86.76 -17.41c0,-31.76 -7.09,-59.09 -21.23,-81.99 -14.16,-22.9 -33.39,-40.31 -57.7,-52.21 -24.3,-11.91 -51.22,-17.87 -80.77,-17.87 -42.45,0 -78.6,13.44 -108.44,40.31 -29.85,26.87 -46.93,64.12 -51.24,111.76l319.38 0zm281.51 -132.83c14.78,-28.7 35.85,-51 63.23,-66.87 27.39,-15.88 60.77,-23.82 100.15,-23.82l0 86.11 -22.15 0c-94.15,0 -141.23,50.69 -141.23,152.07l0 272.99 -83.99 0 0 -502.01 83.99 0 0 81.53zm902.73 -218.03l0 67.79 -175.38 0 0 570.72 -83.99 0 0 -570.72 -176.3 0 0 -67.79 435.67 0zm187.37 218.03c14.77,-28.7 35.85,-51 63.23,-66.87 27.39,-15.88 60.77,-23.82 100.15,-23.82l0 86.11 -22.15 0c-94.15,0 -141.23,50.69 -141.23,152.07l0 272.99 -83.99 0 0 -502.01 83.99 0 0 81.53zm228.92 167.64c0,-51.3 10.46,-96.34 31.38,-135.12 20.92,-38.78 49.69,-68.86 86.3,-90.23 36.62,-21.38 77.39,-32.07 122.3,-32.07 44.31,0 82.77,9.47 115.38,28.4 32.62,18.93 56.92,42.75 72.92,71.46l0 -91.61 84.92 0 0 502.01 -84.92 0 0 -93.44c-16.61,29.31 -41.38,53.59 -74.3,72.83 -32.93,19.24 -71.22,28.85 -114.91,28.85 -44.93,0 -85.54,-10.99 -121.85,-32.97 -36.3,-21.99 -64.92,-52.83 -85.84,-92.53 -20.92,-39.7 -31.38,-84.89 -31.38,-135.58zm428.28 0.92c0,-37.87 -7.69,-70.85 -23.07,-98.94 -15.39,-28.09 -36.15,-49.62 -62.3,-64.58 -26.16,-14.96 -54.92,-22.45 -86.31,-22.45 -31.39,0 -59.99,7.33 -85.84,21.99 -25.84,14.66 -46.46,36.03 -61.84,64.13 -15.39,28.09 -23.08,61.07 -23.08,98.93 0,38.48 7.69,71.91 23.08,100.31 15.38,28.4 36,50.08 61.84,65.04 25.85,14.97 54.45,22.45 85.84,22.45 31.39,0 60.15,-7.48 86.31,-22.45 26.15,-14.96 46.91,-36.64 62.3,-65.04 15.38,-28.4 23.07,-61.53 23.07,-99.39zm270.45 -331.62c-15.99,0 -29.53,-5.5 -40.61,-16.49 -11.08,-11 -16.61,-24.43 -16.61,-40.31 0,-15.88 5.53,-29.31 16.61,-40.31 11.08,-10.99 24.62,-16.49 40.61,-16.49 15.38,0 28.46,5.5 39.23,16.49 10.76,11 16.15,24.43 16.15,40.31 0,15.88 -5.39,29.31 -16.15,40.31 -10.77,10.99 -23.85,16.49 -39.23,16.49zm40.61 81.53l0 502.01 -83.99 0 0 -502.01 83.99 0zm227.07 -175.89l0 677.9 -83.99 0 0 -677.9 83.99 0zm604.6 407.66c0,15.88 -0.93,32.67 -2.77,50.38l-404.29 0c3.07,49.47 20.15,88.1 51.23,115.88 31.07,27.79 68.76,41.69 113.07,41.69 36.3,0 66.61,-8.4 90.91,-25.2 24.32,-16.79 41.38,-39.23 51.24,-67.33l90.45 0c-13.53,48.25 -40.62,87.49 -81.22,117.72 -40.62,30.23 -91.08,45.34 -151.38,45.34 -48,0 -90.92,-10.68 -128.76,-32.06 -37.85,-21.37 -67.54,-51.76 -89.08,-91.15 -21.53,-39.39 -32.31,-85.04 -32.31,-136.95 0,-51.91 10.46,-97.41 31.39,-136.5 20.92,-39.08 50.3,-69.16 88.14,-90.23 37.85,-21.07 81.39,-31.61 130.62,-31.61 48,0 90.45,10.39 127.38,31.15 36.92,20.76 65.38,49.32 85.38,85.65 19.99,36.34 30,77.41 30,123.22zm-86.77 -17.41c0,-31.76 -7.08,-59.09 -21.23,-81.99 -14.15,-22.9 -33.38,-40.31 -57.69,-52.21 -24.3,-11.91 -51.23,-17.87 -80.77,-17.87 -42.45,0 -78.6,13.44 -108.45,40.31 -29.84,26.87 -46.92,64.12 -51.23,111.76l319.37 0zm281.52 -132.83c14.77,-28.7 35.85,-51 63.23,-66.87 27.38,-15.88 60.77,-23.82 100.15,-23.82l0 86.11 -22.15 0c-94.15,0 -141.23,50.69 -141.23,152.07l0 272.99 -83.99 0 0 -502.01 83.99 0 0 81.53z"/>
  <polyline class="fil1 str0" points="248.08,1369.08 248.08,394.16 7241.05,394.16 "/>
  <polyline class="fil1 str0" points="8119.53,1190.13 8119.53,2225.47 1068.18,2225.47 "/>
  <polygon class="fil2 str1" points="1401.93,1020.51 1401.93,1585.25 1811.19,1302.88 "/>
 </g>
</svg>
