<?xml version="1.0" encoding="UTF-8"?>
<!DOCTYPE svg PUBLIC "-//W3C//DTD SVG 1.1//EN" "http://www.w3.org/Graphics/SVG/1.1/DTD/svg11.dtd">
<!-- Creator: CorelDRAW -->
<svg xmlns="http://www.w3.org/2000/svg" xml:space="preserve" width="220.133mm" height="25.3998mm" version="1.1" style="shape-rendering:geometricPrecision; text-rendering:geometricPrecision; image-rendering:optimizeQuality; fill-rule:evenodd; clip-rule:evenodd"
viewBox="0 0 22013.32 2539.98"
 xmlns:xlink="http://www.w3.org/1999/xlink"
 xmlns:xodm="http://www.corel.com/coreldraw/odm/2003">
 <defs>
  <style type="text/css">
   <![CDATA[
    .fil0 {fill:white}
   ]]>
  </style>
 </defs>
 <g id="Camada_x0020_1">
  <metadata id="CorelCorpID_0Corel-Layer"/>
  <g id="_2633747623344">
   <g>
    <path class="fil0" d="M2401.11 1751.84l80.71 25.67c2.29,0.77 4.93,1.44 7.4,2.27 28.33,9.53 59.38,18.5 88.03,28.03 10.03,3.33 19.43,5.87 29.44,9.23l22.05 6.97c2.4,0.74 5.38,2.14 7.89,2.35l0 -845.37c0,-24.37 -2.48,-51.11 11.03,-71.46 4.9,-7.38 13.5,-14.44 24.24,-14.44 7.71,0 18.99,3.78 24.08,6.64 24.38,13.68 29.01,36.31 32.42,60.88 1.79,12.96 0.96,107.7 0.96,123.06 0,82.68 0,165.35 0,248.03 2.57,1.37 5.03,2.22 7.78,3.6 2.74,1.39 5.38,2.48 8.31,3.64 18.01,7.12 34.93,13.34 55.02,16.66 21.9,3.62 22.64,2.89 43.82,2.86 22.86,-0.03 53.17,-10.78 71.66,-23.92 2.35,-1.66 4.58,-3.35 6.83,-5.11l15.51 -14.07 13.39 -16.77c3.27,-4.78 6.58,-9.54 9.22,-14.67 16.42,-31.84 22.66,-53.03 27.7,-91.2 1.08,-8.19 2.45,-24.23 2.45,-33.39 0,-1.86 -0.07,-3.86 -0.02,-5.71 0.08,-2.8 0.52,-2.84 0.61,-5.65l-1.65 -46.18c-0.39,-3.61 -0.55,-7.83 -0.64,-11.3 -0.26,-10.05 -5.33,-42.4 -7.35,-52.39 -2.7,-13.32 -6.03,-25.56 -10.08,-37.7 -6.6,-19.81 -19.17,-47.26 -31.66,-63.91 -1.75,-2.33 -3.05,-4.25 -4.8,-6.58l-16.23 -19.62c-33.94,-33.55 -42.89,-38.88 -81.54,-61.81l-31.69 -16.1c-11.28,-4.81 -20.41,-9.44 -33.24,-14.55 -11.54,-4.59 -22.66,-9.05 -34.66,-13.12l-53.75 -17.93c-3.13,-1.04 -5.87,-2.05 -9.03,-2.92l-82.56 -24.96c-37.91,-11.06 -74.24,-20.68 -112.91,-30.45l-29.02 -6.82c-3.62,-0.82 -6.19,-1.49 -9.75,-2.2 -5.61,-1.1 -34.89,-7.81 -39.97,-7.81l0 1038.22z"/>
    <path class="fil0" d="M2680.44 1446.34l0 141.09 260.67 -91.48c37.02,-10.32 89.33,-16.13 127.76,-5.69 7.56,2.05 26.28,8.79 26.28,18.66 0,6.72 -2.11,9.78 -6.68,14.37 -3.29,3.3 -6.31,5.27 -10.56,7.64 -8.08,4.51 -15.56,7.63 -25.07,10.77l-119.49 42.64c-4.63,1.79 -9.08,3.13 -13.48,4.72 -8.92,3.22 -18.07,6.41 -26.75,9.66l-146.06 51.92c-15.59,5.19 -30.86,11.49 -46.5,16.65 -2.58,0.85 -4.27,1.44 -6.71,2.38 -4.31,1.67 -9.34,2.84 -13.41,4.8l0 135.96c3.49,-0.29 7.16,-2.21 10.31,-3.34 3.47,-1.25 6.85,-2.44 10.41,-3.81 7.01,-2.72 13.49,-4.7 20.48,-7.4l41.5 -14.81c7.06,-2.45 13.37,-5.07 20.48,-7.4l41.4 -14.93c7.05,-2.64 14.12,-4.75 20.96,-7.47 3.12,-1.25 6.67,-2.48 10.02,-3.64 17.3,-5.99 34.27,-12.75 51.49,-18.48l82.92 -29.72c17.12,-5.7 34.41,-12.56 51.49,-18.49l103.39 -37.12c20.45,-7.35 41.49,-14.51 61.45,-22.75 3.5,-1.44 6.39,-2.97 9.83,-4.39 24.46,-10.1 68.17,-35.98 80.55,-59.96 5.41,-10.5 6.82,-16.08 6.82,-28.46 0,-10.83 -6.15,-23.7 -12.96,-31.42 -2.58,-2.93 -4.32,-4.91 -7.1,-7.69 -5.07,-5.07 -10.46,-9.09 -16.19,-13.39 -3.02,-2.25 -5.61,-3.84 -8.94,-5.85 -1.83,-1.09 -2.77,-1.74 -4.68,-2.71 -27.7,-14.03 -30.42,-14.65 -57.31,-24.05 -3.88,-1.36 -6.79,-2.67 -10.8,-3.99l-22.61 -7.54c-33.31,-11.24 -87.18,-21.59 -122.29,-25.62 -4.48,-0.51 -8.64,-0.88 -13.28,-1.51 -4.18,-0.57 -9.51,-1.18 -13.42,-1.37 -4.73,-0.24 -9.32,-0.94 -13.64,-1.15l-43.24 -1.71c-46.83,0 -81.77,1.51 -127.35,9.18 -26.32,4.44 -51.96,8.99 -77.78,15.52 -22.07,5.57 -43.41,11.44 -64.88,18.75 -2.12,0.72 -5.29,1.8 -7.03,2.63z"/>
    <path class="fil0" d="M2210.54 1699.5c45.15,0 86.39,-3.95 129.38,-11.14l13.21 -2.15c1.85,-0.34 3.04,-0.19 3.04,-2.07l0 -120.61c-2.82,0.07 -8.7,2.8 -11.59,3.78 -4.18,1.41 -7.68,2.83 -11.66,4.26 -21.73,7.81 -48.36,17.03 -69.72,25.29 -3.98,1.54 -7.38,2.5 -11.3,4.05l-23.73 8.14c-36.16,10 -88.2,14.92 -124.47,5 -11.59,-3.18 -26.85,-8.71 -26.85,-21.5 0,-16.56 39.2,-29.28 52.27,-33.63 2.87,-0.96 6.31,-2.22 9.24,-3.28l26.75 -9.66c14.86,-5.55 30.71,-10.56 45.67,-16.34 3.05,-1.18 5.81,-2.18 8.78,-3.16 3.09,-1.02 6.16,-2.25 9.26,-3.26 19.38,-6.38 43.05,-15.54 63.29,-22.61l64.06 -22.98 0 -136.53 -14.06 4.72c-11.59,4.59 -29.41,10.13 -41.61,14.7l-20.49 7.39c-2.38,0.79 -4.6,1.55 -7.14,2.53l-55.44 19.65c-4.42,1.47 -9.37,3.51 -13.79,4.99l-41.54 14.77c-4.76,1.78 -9,3.16 -13.94,4.84l-41.52 14.79c-9.49,3.23 -18.18,6.47 -27.74,9.82 -9.39,3.28 -18.33,6.62 -27.58,9.96l-27.73 9.81c-32.12,10.61 -62.62,23.59 -92.76,38.66l-12.13 6.64c-12.91,6.67 -34.82,21.2 -43.33,31.77 -5.96,7.41 -10.06,14.27 -12.39,25.15 -3.9,18.22 5,37.9 17.18,50.45 1.23,1.26 1.24,1.56 2.29,2.83 3,3.61 16.78,14.1 20.77,16.78 11,7.36 24.69,13.92 37.34,18.98 9.42,3.77 32.41,11.29 42.3,14.02 4.51,1.24 9.72,3 14.41,4.36 4.95,1.44 9.68,2.64 14.66,4.12 14.27,4.23 45.6,11.11 61.17,13.91 42.26,7.6 87.98,12.76 137.44,12.76z"/>
    <path class="fil0" d="M3170.82 1769.47c0,-24.61 20.35,-45.51 43.23,-45.51l4.55 0c22.45,0 43.24,20.79 43.24,43.23 0,9.02 -0.45,14.04 -4.55,22.19 -3.43,6.83 -2.94,5.24 -6.59,9.91 -1.08,1.39 -1.37,1.87 -2.64,3.05l-6.04 4.76c-29.04,20.1 -71.2,-0.5 -71.2,-37.63zm-9.68 0c0,22.24 13.09,40.47 32.42,50.07 26.19,13 59.13,0.73 72.65,-26.36 17.37,-34.8 -9.06,-78.89 -47.61,-78.89 -14.2,0 -28.52,3.68 -38.26,13.5 -6.77,6.83 -8.81,8.04 -14.27,19.29 -2.59,5.33 -4.93,14.76 -4.93,22.39z"/>
    <path class="fil0" d="M3219.74 1764.35l-15.93 0 0 -17.07c5.72,0 21.15,-0.97 24.6,1.57 2.64,1.95 7.76,15.5 -8.67,15.5zm-26.74 34.7l10.81 0 0 -25.03c23.58,0 25.37,-2.3 26.66,9.75 1.78,16.69 -3.47,15.28 12.6,15.28 4.55,0 -0.89,-5.77 -1.42,-8.26 -1.51,-7.24 2.17,-17.58 -5.98,-21.89 1.35,-2.01 9.86,-8.48 5.64,-20.43 -2.29,-6.48 -8.76,-10.86 -17.59,-10.86l-30.72 0 0 61.44z"/>
   </g>
   <g>
    <path class="fil0" d="M6195.54 1090.13l253.78 0 0 441.03c0,5.68 1.72,7.4 7.39,7.4l108.41 0c5.68,0 7.4,-1.72 7.4,-7.4l0 -441.03 162.6 0c2.63,11.25 8.07,22.66 11.98,32.38l92.56 235.13c18.12,45.3 33.82,87.35 52.08,132.7l39.78 100.66c4.11,10.26 10.76,24.06 13.03,33.79 8.34,-6.11 49.74,-121.79 53.47,-131.33 17.75,-45.48 34.56,-90.08 52.48,-134.76l90.87 -234.36c4.29,-11.9 9.7,-21.69 12.61,-34.21l514.94 0c-9.13,-17.26 -17.18,-34.34 -26.28,-52.56 -6.38,-12.76 -22.06,-50.92 -30.39,-50.92l-544.5 0c-7.87,0 -8.5,6.55 -10.88,13.76l-20.78 55.6c-7.97,21.42 -83.13,214.15 -84.15,226.3l-4.93 0c-2.4,-10.31 -10.48,-26.92 -14.84,-36.89l-110.81 -261.23 -566.68 0c-1.87,7.01 -9.62,18.72 -13.74,25.69l-45.4 80.25z"/>
    <path class="fil0" d="M7779.8 1343.91l0 -24.64c0,-106.84 118.2,-113.2 170.67,-64.73 8.34,7.71 16.5,20.46 20,31.73 12.99,41.64 7.11,89.96 -18.9,121.01 -16.28,19.42 -43.41,28.43 -69.74,31.43 -56.7,6.47 -102.03,-36.3 -102.03,-94.8zm-115.81 -32.04c0,57.16 3.55,104.61 33.98,153.28 39.83,63.68 110.03,88.18 185.3,88.18 40.61,0 85.3,-17.94 116.83,-38.39 57.93,-37.59 90.14,-102.76 90.14,-173.49 0,-94.84 -23.86,-166.93 -114.92,-207.85 -125.55,-56.41 -311.33,11.62 -311.33,178.27z"/>
    <path class="fil0" d="M5872.79 1353.77c3.06,-13.2 18.94,-86.82 27.09,-98.56l25.06 86.44c1.7,7.57 2.52,8.83 -7.45,9.8 -6.1,0.59 -15.99,-0.4 -22.61,-0.23 -12.05,0.32 -11.36,2.3 -22.09,2.55zm-177.4 184.79l108.4 0c8.01,0 14.19,-19.79 20.07,-34.15 4.89,-11.92 11.15,-27.81 16.89,-39.78l112.95 2.87c12.71,2.15 13.94,10.26 24.22,32.44l18.06 41.07 120.72 0c-0.2,-9.37 -7.95,-28.12 -11.36,-37.9l-133.7 -371.4c-4.55,-12.67 -8.53,-24.83 -13.66,-38.07l-53.17 -148.87c-8.27,6.05 -36.96,95.89 -42.61,110.15 -4.95,12.52 -9.9,26.39 -13.76,37.98l-26.68 74.34c-10.07,25.46 -18.55,51.02 -27.51,75.96l-101.84 280.35c-2.45,6.85 -7.59,15.01 2.98,15.01z"/>
    <path class="fil0" d="M8117.34 1538.56l108.41 0 0 -155.23c15.82,4.22 168.96,147.87 187.25,152.76l0 -409 -103.48 0c0,25.95 -9.86,109.22 -9.86,135.51 -9.21,-4.88 -15.77,-11.03 -24.06,-17.81 -22.76,-18.61 -158.84,-127.54 -168.12,-130.02 0,133.71 4.45,270.1 2.32,404.21 -0.16,10.46 -2.43,19.58 7.54,19.58z"/>
    <path class="fil0" d="M6079.74 1341.45c0,41.11 42.08,128.98 78.24,160.74 62.29,54.71 137.91,52.45 213.44,27.45 15.5,-5.14 55.99,-20.78 63.12,-30.51 -2.65,-9.92 -10.15,-12.93 -16.21,-20.75l-34.49 -39.42c-6.16,-7.97 -10.49,-13.45 -18.29,-18.67 -47.79,11.13 -111.3,28.53 -150.95,-16.59 -5.99,-6.82 -11.94,-19.28 -15.09,-29.26 -9.69,-30.62 -8.87,-87.07 13.82,-111.29 29.6,-31.58 65.81,-32.84 109.39,-21.78 50.63,12.84 31.83,24.94 75.59,-27.32 6.98,-8.33 31.42,-31.37 33.76,-40.14 -4.66,-6.97 -19.51,-16.55 -27.55,-21.73 -57.38,-36.97 -141.49,-41.91 -207.99,-14.24 -24.64,10.25 -43.15,27.61 -59.57,46.36 -32.36,36.98 -57.22,106.37 -57.22,157.15z"/>
    <path class="fil0" d="M7294.42 1203.47c0,41.32 20.56,77.08 39.28,108.55 6.14,10.33 12.32,20.12 19.46,29.81 16.84,22.81 24.44,33.55 44.16,54.4 22.75,24.03 21.84,48.69 -21.59,48.69l-83.78 -2.45 0 96.09 155.22 0c45.67,0 78.85,-26.54 78.85,-71.46 0,-89.06 -61.85,-153.83 -114.03,-216.13 -14.98,-17.88 -5.15,-35.18 20.4,-35.18l68.99 0 2.46 -86.23 -128.11 -2.47c-41.33,0 -81.31,30.63 -81.31,76.38z"/>
    <path class="fil0" d="M6629.18 1541.01l103.48 0c5.68,0 7.39,-1.71 7.39,-7.39l0 -406.53 -110.87 0 0 413.92z"/>
    <path class="fil0" d="M7151.52 1306.95l0 234.06 110.87 0 0 -413.92 -108.41 0c0,62.68 -2.46,117.09 -2.46,179.86z"/>
    <path class="fil0" d="M7535.87 1361.16l0 179.85 110.88 0 0 -413.92 -108.41 0c0,80.7 -2.47,153.29 -2.47,234.07z"/>
    <path class="fil0" d="M8477.06 1504.05c0,-73.44 105.94,-72.05 105.94,0 0,67.27 -105.94,66.99 -105.94,0zm-12.32 -4.92c0,90.99 130.58,93.46 130.58,-2.47 0,-7.86 -3.02,-17.3 -5.87,-23.69 -26.8,-60.27 -124.71,-43.28 -124.71,26.16z"/>
    <path class="fil0" d="M8528.8 1496.66l-14.78 0 0 -17.24 19.71 0c8.9,0 7.4,6.22 7.4,14.79 -5.54,1.28 -5.68,2.45 -12.33,2.45zm-27.11 41.9l12.33 0 0 -29.58c16.9,0 19.6,6.08 32.02,29.58l14.79 0c-2.25,-8.44 -14.66,-24.5 -19.7,-32.04 25.65,-13.57 17.56,-39.42 -9.86,-39.42l-29.58 0 0 71.46z"/>
   </g>
   <g>
    <path class="fil0" d="M11813.3 1651.86l-0.89 3.49 0.89 -3.49zm-862.05 99.12l-6.14 0c-49.39,-0.76 -103.51,-22.6 -117.51,-72.15 -1.96,-6.94 -3.23,-14.05 -3.9,-21.28l0 -25.48c5.95,-68.61 56.95,-143.31 99.5,-191.08l22.61 -24.51c10.57,-13.26 48.23,-45.7 63.64,-58.24 4.85,-3.95 9.03,-6.84 13.88,-10.49 9.73,-7.3 18.39,-12.92 28.84,-19.91 26.51,-17.76 108.27,-60.86 130.64,-62.73 5.76,10.88 6.71,23.24 10.75,36.38 4.36,14.14 25.31,47.02 34.1,60.15 3.99,5.96 13.62,24.61 20.15,26.97 5.09,-21.82 4.88,-46.19 4.88,-73.12 5.21,3.81 6.79,11.1 10.43,17.19 3.62,6.03 5.86,10.86 9.36,16.64 4.69,7.73 16.23,27 22.46,31.17 -0.68,-8.18 -5.75,-13.6 -9.22,-20.04 -24.66,-45.79 -41.8,-98.11 -52.4,-149.09 -17.58,-84.55 -25.95,-213.71 30.25,-289.61 15.24,-20.57 35.95,-43.88 66.15,-49.22 37.89,-6.7 62.74,10.41 79,31.81 13.28,17.48 34.09,57.56 34.09,81.28 -5.33,-3.91 -1.93,-1.1 -4.5,-8.5 -8.07,-23.31 -21.05,-45.43 -36.35,-64.4 -17.12,-21.21 -31.02,-26.22 -61.52,-26.22 2.18,9.36 11.09,15.82 16.49,22.5 18.52,22.92 31.24,46.54 41.01,75.99 14.52,43.73 13.76,93 14.01,140.39 0.28,54.54 -9.04,114.15 -28.77,164.6 -4.51,11.51 -30.24,68.11 -42.74,72.63 5.62,-24.12 24.37,-34.2 24.37,-66.62 -16.32,11.96 -4.01,27.62 -34.12,27.62 1.55,6.68 6.5,11.74 9.75,17.88 -13.03,19.45 -51.94,70.31 -67.83,88.17 -3.76,4.22 -5.69,7.95 -10.17,10.95 -9.83,-6.58 -23.57,-32.25 -29.75,-43.37 -4.63,-8.33 -8.31,-16.05 -13.19,-24.19 -4.93,-8.24 -8.02,-15.33 -12.31,-23.44 -7.18,0.6 -26.23,10.59 -33.07,14.06 -49.54,25.15 -93.05,59.18 -122.01,107.1 -15.97,26.43 -37.09,85.35 18.55,85.26 43.15,-0.07 81.61,-21.55 114.76,-44.57 17.61,-12.23 33.21,-29.76 53.66,-37.33 7.48,-2.77 8.95,-3.7 14.57,-8.18 9.13,-7.29 15.57,-14.13 25.04,-20.46 -2.74,10.26 -19.58,23.63 -27.22,31.28 -14.41,14.43 -30.37,26.8 -44.68,41.44l-30.69 26.19c-37.94,30.26 -83.07,59.74 -133.25,64.99 -24.65,2.58 -33.04,-5.9 -50.16,-6.28 0,27.01 15.27,34.25 21.13,42.25 -50.32,0 -89.97,-32.93 -77.91,-89.28 10.67,-49.79 29.24,-80.48 56.54,-114.08 2.1,-2.59 3.29,-3.4 5.5,-5.88 18.33,-20.59 37.72,-40.41 59.23,-57.77 56.15,-45.32 56.8,-22.59 95.22,-73.77 4.84,-6.45 15.06,-17.73 15.79,-26.47 -13.25,0 -23.53,6.05 -33.04,10.84 -28.65,14.4 -57.63,27.82 -84.29,45.71 -51.68,34.68 -98.55,76.88 -131.62,129.99 -5.79,9.28 -10.32,18.33 -15.4,28.48 -4.96,9.93 -8.48,19.24 -12.1,30.15 -7.06,21.25 -13.91,45.67 -10.05,73.83 3.45,25.08 9.18,43.19 24.88,61.25 0,-36.13 -5.16,-63.4 4.27,-94.85 3.06,-10.2 20.47,-64.7 33.1,-69.27 -1.96,3.7 -2.56,5.92 -4.4,10.21 -11.31,26.25 -16.57,46.66 -16.73,77.54 -0.19,36.05 16.87,55.64 41.14,67.74 26.64,13.28 56.5,15.76 91.44,9.58 36.51,-6.46 66.26,-22.15 95.23,-39.65l49.13 -32.11c11.6,-8.39 20.58,-14.96 31.44,-23.81 5.48,-4.47 9.92,-8.74 15,-12.63 5.53,-4.23 8.22,-7.83 13.38,-12.61 37.73,-34.91 73.08,-70.6 106.37,-109.76l22.74 -32.51c6.94,-11.72 13.29,-21.69 19.47,-34.16 12.64,-25.49 22.14,-48.79 31.62,-77.25 13.65,-40.98 24.33,-89.42 28.79,-133.71 1.56,-15.51 0.29,-36.23 2.56,-51.06 3.85,-25.03 -2.96,-74.42 -7.62,-99.37 -9.92,-53.2 -32.65,-110.62 -77.21,-140.54 -19.1,-12.82 -37.49,-15.99 -58.86,-22.38 -6.73,-2.02 -14.39,-2.82 -16.24,-9.76 13.84,-3.23 26.1,-4.06 40.92,-1.92 12.77,1.84 29.4,7.78 37.08,8.42 -5.45,-8.13 -17.77,-10.33 -29.92,-12.33 -11.23,-1.84 -26.83,-3.92 -38.33,-3.92l35.75 -1.63 -8.09 -4.91c-1.79,-0.92 -6.59,-3.55 -8.85,-4.15 -32.05,-8.62 -87.17,22.12 -110.23,42.77 -4.4,3.94 -8.53,8.65 -14.21,10.17 3.68,-13.76 29.31,-34.95 40.85,-43.66 24.37,-18.41 54.75,-27.63 85.67,-27.84l2.14 0c6.98,0.04 13.99,0.55 20.96,1.51 37.59,5.19 83.61,29.69 107.13,60.23 4.08,5.3 7.8,9.35 12.31,15.32 21.45,28.42 32.42,64.16 41,98.75 15.65,63.04 11.67,140.86 6.69,205.93 -1.49,19.52 -8.58,78.65 -16.13,94.37 17.21,4.01 34.29,10.78 50.84,17.41 10.2,4.09 41,13.86 46.66,21.59 -8.55,-0.71 -24.2,-7.65 -33.12,-10.75 -8.74,-3.03 -22.82,-9.62 -31.88,-10.37 1.94,7.27 9.18,11.62 14.22,16.66 5.27,5.27 9.36,9.35 14.63,14.62l23.55 21.95c23.41,21.92 64.13,45.04 93.49,70.63l38.88 35.87c3.03,3.62 3.03,4.44 6.56,8.07 12.7,13.05 42.67,52.85 42.67,75.94l-22.08 -41.29c-4.14,-6.31 -7.98,-12.72 -12.53,-18.34 -11.62,-14.32 -23.63,-28.1 -37.28,-40.73l-41.84 -34.53c-36.72,-28.21 -123.25,-84.48 -162.51,-84.48 5.5,7.51 26.1,13.07 35.28,16.71 53.94,21.44 116.58,59.34 158.52,101.49 25.59,25.72 52.09,54.36 65.74,88.62 17.93,44.99 12.31,89.27 -55.99,80.37 -34.18,-4.46 -54.47,-10.55 -83.1,-20.9 -16.55,-5.98 -55.55,-17.46 -70.54,-26.96 -3.32,-2.1 -1.06,-0.58 -2.79,-2.08 9.42,0 17.9,3.43 27.2,5.29 7.09,1.42 18.26,3.7 26.51,4.39 44.56,3.72 63.94,-25.23 52.15,-65.17 -18.63,-63.1 -108.8,-125.05 -170.86,-139.51 -12.11,18.08 -22.01,38.81 -33.18,57.82 -7.59,12.9 -30.66,45.58 -33.44,57.56 16.55,24.71 12.89,52.18 29.89,74.1 20.11,25.93 104.06,66.53 130.73,77.27l58.41 19.58c6.2,1.68 14.54,2.78 18.21,7.79 -11.25,-0.93 -31.38,-6.8 -42.06,-9.94 -13.05,-3.83 -25.23,-7.34 -38.05,-12.32 -47.07,-18.29 -88.23,-43.73 -128.57,-72.92 -13.4,-9.7 -46.6,-36.32 -61.06,-39.69 1.65,19.88 103.99,78.17 121.18,88.43 42.61,25.44 104.26,47.8 152.21,57.42 44.41,8.91 95.84,9.41 123.79,-31.41 11.63,-16.99 18.33,-42.47 18.81,-64.07l1.18 2.07c0.19,0.38 0.85,1.74 1.05,2.21 5.52,12.94 5.71,24.91 5.83,39.66 0.08,9.09 2.63,14.24 1.47,24.05 -0.96,8.13 -1.41,14.22 -1.41,24.64 7.74,-5.67 15.85,-36.68 17.47,-49.16 2.72,-20.95 2.02,-40.85 -2.18,-60.38 -10.58,-49.14 -38.02,-77.94 -41.29,-91.96 6.73,4.5 10.41,11.47 15.57,18.56 31.25,42.94 71.84,118.73 63.43,174.18 -5.55,36.59 -11.63,47.58 -33.08,69.3 -6.95,7.03 -10.79,9.3 -19.24,14.88 -39.62,26.18 -99.05,24.3 -146.25,16.53 -52.59,-8.65 -141.18,-48.22 -181.71,-75.04 -37.75,-24.97 -85.32,-54.41 -118.4,-86.35l-25.56 -23.19c-4.96,3.32 -8.04,7.47 -12.56,11.82l-50.57 46.92c-37.75,30.14 -50.77,44.12 -98.05,72.58 -68.48,41.23 -140.18,59.6 -229.63,60.43zm343.69 -370.49zm-9.75 -251.87l9.75 251.87zm-9.75 -251.87c0,-36.28 -0.25,-73.91 11.59,-107.04 20.38,-57.05 65.96,-61.35 88.18,2.39 16.43,47.13 14.56,119.28 7.57,169.74 -1.3,9.38 -2.96,18.35 -4.55,26.32 -1.74,8.69 -4.6,17.25 -5.29,25.58 -17.62,0 -36.19,0.58 -53.68,0.06 -6.69,-0.2 -6.8,-0.94 -11.57,-1.43 -17.25,-1.76 -17.62,5.16 -21.82,-18.81 -4.68,-26.67 -10.43,-70.45 -10.43,-96.81zm104 -294.12zm0 0z"/>
    <path class="fil0" d="M11564.68 977.49c0,8.12 3.19,23.63 4.88,30.88l2333.45 0 0 331.49c0,65.16 -1.62,125.01 -1.62,190.12l-1577.85 0c-148.5,0 -291.88,1.63 -440.36,1.63 1.71,7.34 8.76,32.5 16.25,32.5l2036.09 0 0 -588.24 -2209.97 0c-55.43,0 -105.48,1.62 -160.87,1.62z"/>
    <path class="fil0" d="M12117.17 1247.24l-74.75 0 0 -68.25c42.87,0 95.88,-12.29 95.88,21.13 0,22.36 4.16,47.12 -21.13,47.12zm-136.49 170.62l56.87 0c3.74,0 4.87,-1.13 4.87,-4.87l0 -110.5 47.13 0c1.37,5.87 3.91,9.56 6.81,14.31l51.69 101.06c17.62,0 53.68,2.18 65,-3.25 -5,-9.43 -9.74,-18.24 -14.61,-27.64 -7.37,-14.24 -43.89,-75.21 -43.89,-86.11 0,-0.72 25.35,-24.12 28.58,-28.28 19.79,-25.4 15.29,-35.14 15.29,-75.71 0,-14.79 -2.13,-23.65 -8.08,-32.54 -3.7,-5.53 -4.78,-6.8 -9.38,-11.75 -9.79,-10.53 -19.38,-22.66 -34.78,-26.98 -20.88,-5.85 -138.29,-3.48 -165.5,-3.48l0 295.74z"/>
    <path class="fil0" d="M13149.03 1247.24l-78 0c0,-8.24 1.63,-8.85 1.63,-17.88l0 -50.37c18.03,-0.58 71.62,-4.63 85.94,1.8 15.47,6.95 11.55,24.26 11.55,45.33 0,12.71 -8.4,21.12 -21.12,21.12zm-134.87 170.62l56.87 0 0 -115.37c8.22,0 12.47,1.7 22.73,1.65 8.67,-0.05 17.35,-0.03 26.02,-0.03l43.8 82.95c5.32,9.15 9.71,19.74 14.7,29.18 10.98,0 22.87,-0.94 33.44,0.68 12.86,1.98 18.97,-0.68 31.56,-0.68 -1.92,-8.25 -24,-46.38 -29.77,-57.98 -7.12,-14.29 -27.62,-47.29 -30.36,-59.02 13.26,-7.02 6.39,-3.52 17.23,-12.03l14.05 -15.19c18.25,-20.27 14.22,-48.05 14.22,-80.03 0,-19.09 -7.49,-32.51 -19.86,-45.14 -6.35,-6.49 -31.25,-24.73 -41.89,-24.73l-152.74 0 0 295.74z"/>
    <path class="fil0" d="M13540.65 1417.86l60.12 0 0 -120.25 99.12 0 0 120.25 58.5 0 0 -295.74 -58.5 0 0 74.75c0,16.84 -1.62,27.25 -1.62,43.87l-95.87 0 -1.63 -118.62 -60.12 0 0 295.74z"/>
    <path class="fil0" d="M12252.05 1417.86l193.37 0 0 -58.5 -134.88 0 0 -61.75 131.63 0 0 -58.5 -131.63 0c0,-21.95 1.63,-38.01 1.63,-60.12l133.25 -1.62 0 -55.25 -193.37 0 0 295.74z"/>
    <path class="fil0" d="M12843.53 1213.12l34.13 87.74 -40.62 1.63c-10.81,0 -14.07,-1.63 -24.38,-1.63 0.56,-6.72 4.58,-16.21 6.98,-22.27l19.25 -53.87c1.67,-4.38 3.45,-6.47 4.64,-11.6zm-133.24 203.12l30.87 1.62c10.84,-0.01 21.67,0 32.5,0 1.03,-12.41 16.76,-43.51 17.88,-56.87 29.81,0 59.62,0.07 89.43,-0.06 8.65,-0.04 14.61,-0.24 17.64,5.11l18.05 50.2c10,0 14.65,2.54 25.9,1.55l35.85 -1.55c-0.21,-9.35 -54.36,-160.53 -61.96,-183.42 -3.84,-11.56 -7.63,-24.61 -12.32,-36.43l-24.85 -74.27 -68.24 0c-4.86,20.83 -65.12,187.78 -75.77,219.98l-24.98 74.14z"/>
    <path class="fil0" d="M13282.28 1253.74l0 104c0,11.49 22.14,34.19 30.37,41.13 31.92,26.89 51.25,20.62 102.87,20.62 30.18,0 40.36,-8.65 55.66,-23.97 12.59,-12.61 27.5,-29.45 32.09,-49.16 -9.48,-0.79 -41.28,-11.97 -53.62,-13 -4.43,8.38 -6.85,8.25 -12.31,15.31 -3.05,3.94 -10.12,13.94 -15.32,13.94l-60.12 0c-4.07,0 -21.12,-17.05 -21.12,-21.12l0 -143c0,-4.51 6.44,-8.89 9.33,-11.78 2.9,-2.9 7.28,-9.34 11.79,-9.34l60.12 0c6.45,0 24.3,23.54 26,30.87 6.28,-1.46 53.63,-13.79 53.63,-17.87 0,-10.18 -22.55,-40.61 -30.46,-47.55 -18.74,-16.43 -28.78,-22.55 -58.94,-22.31 -10.96,0.09 -14.7,-1.57 -24.29,-1.71 -22.73,-0.33 -50.12,2.07 -65.79,13.96 -10.26,7.78 -18.85,16.89 -27.29,26.33 -11.7,13.1 -11.04,19.11 -10.94,42.69 0.05,10.77 -1.7,14.01 -1.72,24.28 -0.01,9.22 0.06,18.46 0.06,27.68z"/>
    <path class="fil0" d="M12581.91 1291.11l0 126.75 60.13 0 0 -125.12c0,-6.89 18.36,-34.13 23.67,-42.95 7.02,-11.68 72.04,-118.38 73.83,-126.05 -5.09,-0.42 -5.78,-1.62 -11.38,-1.62 -64.07,0 -49.75,-6.88 -67.73,23.26l-47.64 79.11c-5.63,-4.12 -46.62,-75.67 -54.31,-88.69 -2.66,-4.5 -6.16,-8.87 -7.44,-13.68l-61.87 0.07c-7.96,1.5 -2.18,7.34 7.54,23.39 3.19,5.26 4.8,7.91 7.76,13.35 6.86,12.6 77.44,128.86 77.44,132.18z"/>
    <path class="fil0" d="M11725.55 1177.37l79.63 1.62 0 149.5c0,31.72 1.62,57.74 1.62,89.37l56.88 0c0,-16.62 1.62,-27.03 1.62,-43.87l0 -195 79.63 -1.62 0 -55.25 -219.38 0 0 55.25z"/>
    <path class="fil0" d="M10904.94 1284.61c0,39.25 1.63,72.95 1.63,112.13 6.05,-1.62 30.88,-23.29 30.88,-27.63l0 -360.74 173.87 0c0,-12.21 3.25,-21.54 3.25,-32.5l-209.63 0 0 308.74z"/>
    <path class="fil0" d="M11148.69 1071.74c0,88.2 19.1,123.27 19.5,141.38l3.25 0c0,-20.16 1.59,-38.63 -0.28,-54.95 -5.47,-47.83 -7.97,-113.52 2.88,-160.2 10.39,-44.71 3.49,-22.63 2.93,-49.91 -0.12,-5.97 2.45,-17.57 2.6,-24.19l-3.26 0c-1.74,20.96 -27.62,48.16 -27.62,147.87z"/>
    <path class="fil0" d="M11784.05 1555.98c2.74,-1.9 3.25,-0.23 3.25,-4.87l0 -6.5c0,-4.58 -0.7,-3.01 -3.25,-4.88l0 16.25z"/>
    <path class="fil0" d="M11668.68 1643.73l0 1.63 13 0 0 -1.63c-5.32,0 -3.78,-0.94 -6.5,-0.94 -2.73,0.01 -1.19,0.94 -6.5,0.94z"/>
   </g>
   <g>
    <path class="fil0" d="M16427.42 1521.56l120.12 -56.39c5.42,-0.63 80,37.31 90.93,41.61 11.47,4.51 21.51,8.88 30.31,14.78l-7.27 32.51c-12.38,52.27 -38.45,130.42 -81.25,162.76 -41.19,31.13 -78.9,-9.42 -99.31,-41.92 -3.26,-5.2 -5.66,-8.37 -7.99,-13.24l-28.7 -74.72c-3.25,-11.33 -6.25,-20.58 -8.66,-31.14l-8.18 -34.25zm-198.92 15.91c-39.46,-0.88 -68.96,-20 -68.96,-61 0,-46.28 52.15,-109.37 84.21,-141.24l40.45 -36.47 47.71 34.51c71.61,55.12 57.08,14.34 65.93,98.51l5.71 76.51c-13.29,3.1 -24.93,9.38 -39.78,10.61 -6.88,-29.52 -63.2,-65.72 -113.37,-23.18 -12.34,10.47 -17.74,23.89 -21.9,41.75zm383.78 -105.63c2.67,5.56 -7.9,4.65 13.73,5.2 5.64,0.15 12.96,-0.34 18.9,-0.36 12.37,-0.04 24.76,0 37.13,0 -0.24,11.1 -7.2,56.56 -10.61,63.66l-89.56 -37.75c-8.81,-3.97 -2.51,-3.75 -13.88,-4.69 6.44,-9.61 8.47,-7.73 18.42,-13.41 9.59,-5.47 11.74,-7.94 25.87,-12.65zm-81.42 4.84l34.48 0c-10.94,7.6 -13.16,11.36 -26.62,5.41 -3.87,-1.72 -5.34,-3.22 -7.86,-5.41zm-140.57 -196.27l0 87.53c0,13.33 2.38,11.87 2.65,23.87 -11.28,-2.63 -16.26,-8.46 -24.99,-14.79 -14.26,-10.34 -59.92,-42.35 -67.84,-54.17 16.63,-11.13 74.68,-62.08 92.83,-66.31 -0.27,12 -2.65,10.54 -2.65,23.87zm156.49 -119.35c8.22,0 13.94,6.59 18.56,10.61l-37.13 0c4.62,-4.02 10.34,-10.61 18.57,-10.61zm-135.27 61l7.23 -82.94c2.52,-12.57 3.38,-13.63 3.38,-28.46 16.18,0.36 76.93,28.66 93.24,36.73 4.81,2.37 8.41,3.58 12.85,5.71 -4.98,6.79 -17.9,12.61 -27.43,17.66l-89.27 51.3zm-18.57 13.26c-37.32,19.75 -76.38,54.37 -106.09,74.27 -17.04,-4.55 -59.43,-52.89 -67.52,-62.45 -4.07,-4.82 -6.29,-7.06 -9.78,-11.44 -25.28,-31.68 -70.97,-97.25 -40.7,-136.95 6.14,-8.05 11.42,-11.84 20.69,-16.44 53.97,-26.8 180.54,2.68 214.01,20.39 0,23.99 -4.13,40.88 -5.32,66.29 -1.07,22.6 -5.29,39.13 -5.29,66.33zm299.71 -129.96c12,-16.37 141.6,-34.48 156.49,-34.48 40.31,0 87.53,14.13 87.53,53.05 0,12.22 -0.39,47.74 -15.92,47.74l-214.84 0c-13.43,0 -8.08,-31.71 -11.78,-52.18 -0.14,-0.76 -1.42,-4.84 -1.82,-8.23l0.34 -5.9zm405.81 366.76c-23.26,1.18 -48.17,0.37 -71.61,0.36 -22.76,0 -49.96,3.37 -70.24,2.31 1.35,-13.06 2.69,-13.25 6.42,-23.19 4.4,-11.72 0.4,-9.99 3.94,-21.6 4.07,-13.33 10,-24.91 14.26,-40.85 -5.82,4.27 -4.78,-6.61 -4.78,7.96l-5.3 0c-2.13,-25.54 -11.88,-19.73 -13.27,-41.89l-3.43 7.33c-0.27,0.88 -0.42,1.51 -0.64,2.41 -0.06,0.24 -0.73,6.39 -0.79,6.88l-11.09 43.41c-18,67.65 -3.79,58.84 -58.31,58.79 2.43,5.8 0.12,7.88 29.22,4.98 12.96,-1.29 13.91,-5.79 18.69,7.98 23.68,68.21 -20.59,91.48 -93.11,90.57 -32.52,-0.4 -106.59,-16.65 -135.38,-26.4 -11.28,-3.82 -11.62,-5.94 -9.47,-20.13 2.69,-17.82 3.94,-46.87 7.04,-54.36l39.88 0.16c12.71,-1.79 4.97,2.34 10.51,-4.45 -40.96,0.47 -99.31,4.19 -138.72,-0.55 -2.27,-7.91 0.65,-11.09 3.22,-19.03 -11.78,1.91 -8.04,1.59 -17.19,6.59 -6.23,3.41 -8.58,5.12 -14.4,6.67l0 -9.13c-0.5,0.68 -0.9,1.65 -1.16,2.25l-4.15 14.75c-10.35,1.6 -23.98,-2.13 -37.13,-1.55 -12.85,0.56 -20.94,3.84 -34.48,2.82 -24.94,-1.88 -43.35,-2.83 -68.96,-2.66 4.69,4.63 -0.91,4.65 23.82,4.21 62.36,-1.08 36.61,8.91 66.36,15.84l-71 35.09c-39.36,13.94 -33.04,28.09 -40.89,-37.26 -0.9,-7.49 -5.74,-57.89 -7.47,-61.49 12.62,1.05 21.29,10.33 31.83,15.91l0 10.22c6.99,-9.26 3.12,-9.28 6.29,-19.43 1.93,-6.2 3.76,-8.8 5.81,-17.31 -4.61,4.49 -4.14,-7.14 -4.14,10.61 -9.09,-0.76 -33.79,-18.08 -42.44,-23.87 0,-32.34 -2.69,-43.56 -2.65,-76.92 0.04,-31.94 2.65,-54.08 2.65,-84.87 19.24,-12.88 88.54,-60.05 111.39,-63.66l0.01 -7.2c16.85,2.93 116.71,-1.61 135.27,2.13 6.23,2.63 3.48,-1.57 3.3,5.07 5.66,-4.26 4.66,6.61 4.66,-7.95 -104.45,0 -53.16,-4.64 -90.18,-13.27l0 -7.95c19.05,-1.59 -2.01,-9.18 71.63,-7.91 2.71,0.05 11.48,0.49 13.43,0.33 18.56,-1.57 8.31,1.48 13.07,-5.58 -20.83,7.01 -53.06,0.77 -76.02,3.03 -42.41,4.16 -30.2,-1.83 -52.61,1.38 -3.81,0.55 -4.02,1.18 -8.82,0.54 -6.83,-0.91 -1.63,0.7 -6.05,-2.4 2.32,-4.65 2.84,-5.41 5.57,-10.61 -10.59,3.08 -16.31,-0.74 -26.1,-5.7 -28.82,-14.62 -58.84,-25.21 -77.33,-34.09 1.25,-14.98 7.65,-26.03 7.96,-39.78 18.69,0 34.47,-4 46.29,-12.06 65.21,-44.43 10.19,-114.99 9.41,-117.91 35.95,-53.68 79.89,-47.56 118.62,6.04 17.01,23.53 58.76,123.17 51.13,147.62l21.21 -2.74c7.95,20.05 -5.22,41.11 -12.9,55.97 0.05,0.02 6.06,1.36 7.6,2.65 0,18.55 8.47,48.02 5.32,61 0.61,0.23 1.27,1.24 1.44,1.32 0.13,0.06 1.37,0.45 1.49,0l4.07 -18.51 290.04 1.38c3.97,-15.13 42.56,-55.88 31.2,-102.84 -10.62,-43.91 -79.61,-48.3 -126.46,-42.92 -31.51,3.63 -58.23,8.56 -88.69,17.41l-80.94 25.15c-0.77,0.31 -2.97,1.24 -3.74,1.56 -0.58,0.25 -1.28,0.54 -1.87,0.79l-5.55 2.39c-8.01,3.07 -3.17,2.87 -15.7,2.87l-8.6 -47.09c-1.24,-6.2 -3.15,-14.61 -5,-21.53 -1.85,-6.95 -3.17,-16.21 -5.24,-23.93 -12.73,-47.34 -21.73,-79.52 -43.89,-123.21 -26.28,-51.82 -74.77,-98.21 -127.62,-40.89 -18.61,20.2 -29.45,45.97 -40.71,70.69 -9.37,20.55 -15.95,10.94 -37.89,17.8 -48.73,15.24 -73.41,97.09 -4.24,133.69l-7.96 37.13c-31.3,-15.02 -126.99,-42.37 -165.53,-49.31 -100.91,-18.17 -209.33,0.46 -133.35,128.05 21.37,35.89 39.46,50.02 59.78,75.49 4.31,5.4 7.95,8.52 12.99,13.53 5.08,5.05 8.15,8.2 13.23,13.3l29.16 26.54c12.29,11.87 32.26,22.79 43.15,39.06 -9.35,2.5 -4.61,1.49 -11.54,7.03l-110.1 107.39c-35.63,44.09 -108.61,143.4 -17.03,172.78 31.61,10.15 40.51,7.23 72.46,7.31 20.23,0.05 20,-4.21 34.38,-5.4 7.54,14.24 15.51,25.2 30.22,33.44 40.58,22.74 107.7,6.92 107.7,-70.58 11.73,-2.73 23.72,-10.31 37.13,-10.61l7.54 42.86c2.31,16.13 5.31,28.18 9.04,44.01l24.32 81.77c65.33,170.23 141.78,136.71 195.93,1.88 15.49,-38.56 38.15,-128.23 41.67,-170.52 9.88,0 6.66,-0.28 13.79,2.13l38.93 14.11c17.29,5.25 34.6,10.48 53.05,15.91 17.54,5.16 36.82,8.26 55.65,13.31 9.88,2.64 51.09,7.5 63.93,7.7 113.74,1.81 122.4,-62.36 66.4,-145.99l113.53 -0.9c9.01,-3.21 -0.64,4.75 5.83,-3.66z"/>
    <path class="fil0" d="M19909.91 1391.59l-29.18 0c4.19,-17.97 9.48,-33.76 13.99,-52.32l28.46 -106.81c2.42,-9.13 5.3,-19.4 7.23,-27.25 3.91,-15.97 6.02,-14.41 6.02,-28.45l29.18 0c-4.12,17.65 -8.77,34.85 -13.56,52.75 -4.72,17.65 -9.07,35.69 -14.47,54.49l-27.67 107.59zm68.96 -259.92c-34.48,0 -68.96,0 -103.44,0 -15.41,-0.01 -35.95,-2.62 -46.4,3.99 -9.83,6.22 -19.97,19.71 -30.52,22.53 -10.69,-7.16 -15.42,-26.52 -26.52,-26.52l-283.8 0 -9.44 38.29c-4.1,14.29 -6.57,25.45 -10.64,39.76l-56.92 211.42c-2.12,8.89 -5.09,15.54 5.39,15.54l129.96 0c8.04,0 6.51,-3.03 8.8,-9.76l58.43 -217.42c2.83,-9.71 6.22,-25.51 9.69,-32.74l26.52 0c-12.19,52.33 -20.32,42.44 34.48,42.43 32.71,0 65.43,0 98.14,0 -1.49,6.42 -1.27,6.23 -2.61,13.31 -1.91,10.2 -1.4,5.7 -3.98,14.58l-23.53 87.87c-5.44,18.72 -10.72,39.16 -14.91,56.85 -3.24,13.69 -3.65,17.4 4.48,27.04 7.12,8.45 11.27,17.84 19.33,17.84l275.84 0c12.47,0 15.73,-33.19 18.86,-44.8 4.64,-17.23 9.37,-33.67 14.06,-52.24l81.13 -308.76c-14.82,-3.46 -111.13,4.82 -143.23,-2.65l-15.66 50.64c-4.58,18.14 -9.31,34.75 -13.51,52.8z"/>
    <path class="fil0" d="M18581.1 1436.68l445.59 0c11.79,0 23.6,-62.11 25.82,-72.32 2.92,-13.43 7.6,-26.25 10.54,-37.19l51.17 -195.5 -143.23 0c-8.32,17.34 -12.75,44.21 -18.23,63.99l-26.13 95.87c-2.27,9.34 -2.46,8.81 -4.69,16.53l-22.56 83.53 -26.53 0c1.18,-14.05 18.77,-73.55 23.87,-92.84l43.96 -162.03c-1.41,-7.86 -13.77,-5.24 -25.34,-5.1 -39.69,0.5 -79.68,0.05 -119.4,0.05l-34.73 129.71c-5.36,21.88 -11.48,41.99 -17.25,64.98l-16.98 65.23 -26.52 0c0,-11.82 0.2,-8.38 2.55,-16.01l47.83 -177.62c4.37,-16.51 15.92,-52.06 15.92,-66.29l-143.22 0 -70.87 260.93c-5.3,17.25 -4.14,11.22 11.87,34.13 4.8,6.88 5.48,9.95 16.56,9.95z"/>
    <path class="fil0" d="M16517.59 1139.62c-10.61,10.09 -14.51,42.91 -18.83,58.07l-39.76 148.57c-2.54,10.01 -8.01,20.31 -6.22,32.07 -2.05,8.51 -3.88,11.11 -5.81,17.31 -3.17,10.15 0.7,10.17 -6.29,19.43 -1.64,12.71 -0.11,-1.09 -2.89,8.51 -1.42,4.9 -1.1,0.05 -1.07,5.01 0.04,7.88 -1.69,0.91 1.31,3.96 25.61,-0.17 44.02,0.78 68.96,2.66 13.54,1.02 21.63,-2.26 34.48,-2.82 13.15,-0.58 26.78,3.15 37.13,1.55l4.15 -14.75c0.26,-0.6 0.66,-1.57 1.16,-2.25l8.53 -27.42c2.53,-9 5.19,-18.24 7.92,-29.22l49.86 -180.89c7.38,4.94 13.03,8.93 21.21,13.26 -0.36,16.44 -19.21,73.15 -23.87,95.48 -3.41,16.36 -32.48,115.21 -32.06,124.66 -2.57,7.94 -5.49,11.12 -3.22,19.03 39.41,4.74 97.76,1.02 138.72,0.55 4.81,-1.52 0.1,2.52 3.69,-2.95 1.74,-2.65 1.86,-3.71 2.95,-7.22 4.16,-13.34 27.17,-96.33 25.43,-104.89 4.33,-12.36 4.97,-16.88 7.95,-28.87 2.87,-11.55 8.67,-13.46 5.09,-26.83 10.42,-9.31 5.17,-7.2 11.88,-30.54 5.26,-18.25 8.42,-40.24 17.28,-56.99l23.87 0c0,21.08 -20.9,72.99 -19.08,84.88 -4.41,11.03 -11.13,32.21 -10.11,42.43 -6.41,9.05 -27.9,89.73 -31.62,106.3 -7.05,31.34 -11.58,29.2 26.32,28.98 21.11,-0.12 50.19,4.61 68.97,-2.65 54.52,0.05 40.31,8.86 58.31,-58.79l11.09 -43.41c0.06,-0.49 0.73,-6.64 0.79,-6.88 0.22,-0.9 0.37,-1.53 0.64,-2.41l3.43 -7.33 39.23 -141.97c4.25,-15.39 -6.25,-30.52 -18.01,-38.83l-290.04 -1.38 -4.07 18.51c-0.12,0.45 -1.36,0.06 -1.49,0 -0.17,-0.08 -0.83,-1.09 -1.44,-1.32 -0.03,7.41 -2.99,21.66 -5.32,26.53 -6.17,-3.27 -14.77,-8.89 -21.22,-10.61 0,-12.49 3.39,-16.66 0.65,-26.53 0.18,-6.64 2.93,-2.44 -3.3,-5.07 -18.56,-3.74 -118.42,0.8 -135.27,-2.13l-0.01 7.2z"/>
    <path class="fil0" d="M18252.21 1436.68l-18.56 68.96 -26.53 0c3.48,-14.93 7.28,-28.12 10.61,-42.43l-145.87 0c-0.79,9.41 -3.81,15.25 -6.38,25.45 -7.6,30.1 -12.23,28.02 2.5,47.38 4.11,5.42 9.6,14.69 17.14,14.69l249.32 0c4.81,0 37.2,-25.39 39.82,-29.14 4.3,-6.13 13.17,-44.85 15.87,-55.74l67.22 -248.41c5.42,-20.54 20.31,-72.45 20.31,-85.77l-143.22 0 -52.15 194.52c-3.31,12.57 -16.57,54.5 -16.81,65.4l-26.53 0 49.81 -194.2c3.23,-11.36 5.81,-19.88 8.89,-30.9 2.09,-7.52 6.91,-26.4 7.61,-34.82 -29.18,0 -58.35,0 -87.53,0 -80.3,0 -48.08,-16.8 -81.54,93.5l-54.94 206.77c1.67,8.49 14.44,4.78 35.69,4.74l135.27 0z"/>
    <path class="fil0" d="M17331.86 1436.68l135.27 0c10.4,0 9.6,-8.39 12.66,-19.16 1.95,-6.84 1.13,-2.74 3,-10.26l59.5 -224.48c5.98,-13.67 11.39,-5.1 28.28,-8.68 -0.3,13.23 -7.07,33.06 -10.92,47.44l-49.8 186.26c-9.64,32.76 -5.2,29.35 18.19,28.97 39.66,-0.63 79.74,-0.09 119.44,-0.09l73.46 -275.6c-0.82,-8.08 -10.12,-14.05 -20.41,-29.41l-289.1 0 -40.71 150.26c-7.32,25.21 -14.06,50.81 -20.05,75.43 -5.16,21.21 -18.81,57.12 -18.81,79.32z"/>
    <path class="fil0" d="M19246.83 1391.59l-29.17 0c5.18,-22.24 12.57,-45.56 18.01,-66.86 5.71,-22.37 3.79,-26.71 11.14,-31.45 2.41,-1.55 23.89,-4.13 23.89,2.83l-17.84 69.68c-3.56,14.53 -5.77,14.48 -6.03,25.8zm18.57 -172.4c0.71,-8.56 3.07,-13.51 5.05,-21.46 2.63,-10.57 4.75,-11.31 5.56,-20.97l26.52 0c0,14.6 -13.3,59 -18.57,68.95l-132.61 0c-44.71,-0.03 -38.62,-7.39 -50.15,40.03 -2.17,8.91 -3.03,9.94 -4.78,16.44l-24.24 89.98c-5.36,18.25 -1.53,16.68 6.99,29.17 9.85,14.46 6.69,15.71 29.61,15.49l270.67 -0.14 66.56 -251.71c5.53,-21.74 10.21,-16.12 -4.45,-38.49 -4.08,-6.23 -7.1,-14.81 -14.37,-14.81l-278.49 0c-9.34,0 -9.52,10.62 -11.73,20.1 -2.2,9.39 -4.34,18.06 -6.28,25.55 -14.76,57.1 -35.29,41.87 134.71,41.87z"/>
    <path class="fil0" d="M16981.23 1349.15c-4.26,15.94 -10.19,27.52 -14.26,40.85 -3.54,11.61 0.46,9.88 -3.94,21.6 -3.73,9.94 -5.07,10.13 -6.42,23.19 20.28,1.06 47.48,-2.31 70.24,-2.31 23.44,0.01 48.35,0.82 71.61,-0.36 2.26,-1.94 0.56,0.92 3.18,-5.61l16.87 -62.6c15.44,-53.85 32.9,-130.34 47.5,-177.95 2.92,-9.51 0.65,-9.25 9.73,-11.49 4.03,-0.99 18.43,-0.37 23.51,-0.37 1.13,-13.63 9.74,-32.02 10.6,-42.43l-29.17 0c4.48,-19.26 11.43,-39.1 15.91,-58.35l55.7 0c-0.33,14.79 -4.97,14.38 -5.3,29.17l143.22 0 11.51 -41.54c8.17,-28.4 12.36,-32.53 -3.92,-31.12 -39.88,3.47 -207.39,0.98 -264.86,1.05 -8.83,0.01 -17.77,0.39 -26.56,-0.32 -15.86,-1.27 -11.41,-3.65 -33.62,14.4 -3.98,3.24 -12.61,9.15 -14.86,11.67 -5.83,6.52 -4.56,10.33 -7.22,19.3l-50.37 188.34c-3.63,13.71 -22.98,71.72 -19.08,84.88z"/>
    <path class="fil0" d="M17888.85 1436.68c18.69,0 151.41,1.83 158.02,-1.11 8.62,-3.83 9.39,-16.59 13.36,-29.54l1.44 -4.03c3.91,-15.08 -3.74,-10.41 -53.47,-10.41 0.35,-15.57 26.56,-108.1 34.16,-135.59 2.52,-9.14 4.56,-17.39 7.37,-27.11l14.17 -54.79c19.51,0 46.8,2.45 58.35,0 12.08,-51.84 23.95,-42.43 -45.09,-42.43 0.24,-10.68 2.8,-15.07 5.05,-24.13l18.82 -71.36c0,-12.21 -7.61,-5.3 -15.91,-5.3l-111.4 0c-21,0 -12.24,-12.96 -26.19,37.47l-81.34 303.24c-8.08,32.19 -13.57,27.98 1.4,49.2 5.58,7.91 8.81,15.89 21.26,15.89z"/>
    <path class="fil0" d="M17684.62 1436.68c158.01,0 133.47,10.76 144.96,-32.74 20.07,-76.07 49.31,-192.71 69.23,-257.46 2.3,-7.48 6.45,-14.81 -4.66,-14.81 -158.01,0 -133.47,-10.76 -144.96,32.74 -3.62,13.73 -7.58,27.55 -10.95,39.44l-58.68 217.62c-2.06,7.75 -5.82,15.21 5.06,15.21z"/>
    <path class="fil0" d="M17164.76 1436.68l124.66 0c10.81,0 11.37,-1.83 14.55,-9.32l78.29 -295.69 -143.23 0c-5.28,11.01 -7.48,23.14 -11.16,36.57l-41.33 154.95c-3.47,13.5 -7.48,27.92 -10.43,39.96 -2.42,9.85 -3.52,11.89 -5.3,18.58l-10.72 40.12c-2.3,7.5 -6.42,14.83 4.67,14.83z"/>
    <path class="fil0" d="M17766.84 1102.49l137.92 0c10.24,0 9.04,-12.26 14.31,-33.43 3.46,-13.92 6.38,-24.54 9.56,-38.18 -17.88,-4.17 -87.03,0.17 -116.78,0.04 -31.61,-0.13 -25.1,-8.19 -33.51,22.06 -3.67,13.2 -11.24,37.94 -11.5,49.51z"/>
    <path class="fil0" d="M16530.85 1089.23c-2.73,5.2 -3.25,5.96 -5.57,10.61 4.42,3.1 -0.78,1.49 6.05,2.4 4.8,0.64 5.01,0.01 8.82,-0.54 22.41,-3.21 10.2,2.78 52.61,-1.38 22.96,-2.26 55.19,3.98 76.02,-3.03 4.46,0.56 2.43,3.7 2.22,-3.21 -0.26,-8.64 0.52,-1.1 -1.86,-7.5 7.68,-14.86 20.85,-35.92 12.9,-55.97l-21.21 2.74c-10.16,-6.89 -16.5,-2.44 -45.09,-2.47 -16.42,-0.02 -34.35,0.7 -50.57,0 -23.34,-1.01 -20.28,-7.4 -26.97,17.94 -2.79,10.59 -11.15,29.08 -7.35,40.41z"/>
    <path class="fil0" d="M16796.11 1261.63c3.58,13.37 -2.22,15.28 -5.09,26.83 -2.98,11.99 -3.62,16.51 -7.95,28.87 13.97,-5.88 15.3,-9.43 28.94,-18.57 2,1.67 6.45,2.15 7.94,2.65 -1.02,-10.22 5.7,-31.4 10.11,-42.43 -8.18,3.59 -1.52,0.22 -7.93,4.89 -4.17,3.04 -2.65,4.21 -8.14,5.23 -11.02,2.06 -2.34,-1.14 -17.88,-7.47z"/>
   </g>
  </g>
 </g>
</svg>
