<?xml version="1.0" encoding="UTF-8"?>
<!DOCTYPE svg PUBLIC "-//W3C//DTD SVG 1.1//EN" "http://www.w3.org/Graphics/SVG/1.1/DTD/svg11.dtd">
<!-- Creator: CorelDRAW -->
<svg xmlns="http://www.w3.org/2000/svg" xml:space="preserve" width="210mm" height="55mm" version="1.1" style="shape-rendering:geometricPrecision; text-rendering:geometricPrecision; image-rendering:optimizeQuality; fill-rule:evenodd; clip-rule:evenodd"
viewBox="0 0 21000 5500"
 xmlns:xlink="http://www.w3.org/1999/xlink"
 xmlns:xodm="http://www.corel.com/coreldraw/odm/2003">
 <defs>
  <style type="text/css">
   <![CDATA[
    .str0 {stroke:#51C74F;stroke-width:16.93;stroke-miterlimit:22.9256}
    .fil0 {fill:#78C02D}
    .fil1 {fill:#373435;fill-rule:nonzero}
   ]]>
  </style>
 </defs>
 <g id="Camada_x0020_1">
  <metadata id="CorelCorpID_0Corel-Layer"/>
  <polygon class="fil0 str0" points="401.21,434.55 401.21,3168.95 2497.57,5265.31 20558.41,5265.31 20558.41,2401.16 18568.27,411.02 "/>
  <path class="fil1" d="M5235.96 3639.6c-96.25,0 -182.39,-17.09 -258.42,-51.27 -76.03,-34.18 -135.66,-81.61 -178.91,-142.29 -43.24,-60.68 -65.56,-130.78 -66.96,-210.29l202.97 0c6.98,68.35 35.23,125.9 84.75,172.63 49.52,46.73 121.71,70.1 216.57,70.1 90.68,0 162.17,-22.67 214.48,-68.01 52.31,-45.34 78.47,-103.58 78.47,-174.72 0,-55.8 -15.34,-101.14 -46.03,-136.01 -30.69,-34.88 -69.06,-61.38 -115.09,-79.52 -46.04,-18.13 -108.11,-37.66 -186.23,-58.59 -96.26,-25.11 -173.33,-50.22 -231.22,-75.33 -57.9,-25.11 -107.42,-64.52 -148.57,-118.22 -41.15,-53.71 -61.73,-125.9 -61.73,-216.58 0,-79.51 20.23,-149.96 60.68,-211.34 40.46,-61.38 97.3,-108.81 170.54,-142.29 73.24,-33.48 157.29,-50.22 252.15,-50.22 136.71,0 248.65,34.18 335.84,102.53 87.19,68.36 136.36,159.03 147.52,272.03l-209.25 0c-6.97,-55.8 -36.27,-104.98 -87.88,-147.52 -51.62,-42.55 -119.97,-63.82 -205.07,-63.82 -79.51,0 -144.38,20.57 -194.6,61.72 -50.22,41.16 -75.33,98.7 -75.33,172.64 0,53 15,96.25 44.99,129.73 29.99,33.48 66.96,58.94 110.9,76.38 43.95,17.43 105.67,37.31 185.19,59.63 96.25,26.51 173.68,52.66 232.27,78.47 58.59,25.81 108.81,65.56 150.65,119.27 41.85,53.71 62.78,126.6 62.78,218.67 0,71.14 -18.83,138.1 -56.5,200.88 -37.66,62.77 -93.46,113.69 -167.4,152.75 -73.93,39.06 -161.12,58.59 -261.56,58.59zm694.71 -592.18c0,-117.18 23.71,-220.06 71.14,-308.64 47.43,-88.58 112.65,-157.28 195.65,-206.11 83,-48.82 175.42,-73.24 277.25,-73.24 100.44,0 187.63,21.63 261.57,64.87 73.93,43.25 129.03,97.65 165.3,163.21l0 -209.24 192.51 0 0 1146.68 -192.51 0 0 -213.43c-37.66,66.96 -93.81,122.41 -168.44,166.35 -74.64,43.94 -161.47,65.91 -260.52,65.91 -101.83,0 -193.9,-25.11 -276.21,-75.33 -82.3,-50.22 -147.17,-120.66 -194.6,-211.34 -47.43,-90.67 -71.14,-193.9 -71.14,-309.69zm970.91 2.1c0,-86.49 -17.44,-161.82 -52.31,-225.99 -34.87,-64.17 -81.96,-113.35 -141.24,-147.52 -59.29,-34.18 -124.51,-51.27 -195.65,-51.27 -71.15,0 -136.01,16.74 -194.6,50.22 -58.59,33.48 -105.32,82.3 -140.2,146.47 -34.87,64.17 -52.31,139.5 -52.31,225.99 0,87.89 17.44,164.26 52.31,229.13 34.88,64.87 81.61,114.39 140.2,148.57 58.59,34.17 123.45,51.26 194.6,51.26 71.14,0 136.36,-17.09 195.65,-51.26 59.28,-34.18 106.37,-83.7 141.24,-148.57 34.87,-64.87 52.31,-140.55 52.31,-227.03zm613.1 -757.49c-36.27,0 -66.96,-12.55 -92.07,-37.66 -25.11,-25.11 -37.67,-55.8 -37.67,-92.07 0,-36.27 12.56,-66.96 37.67,-92.07 25.11,-25.11 55.8,-37.66 92.07,-37.66 34.87,0 64.52,12.55 88.93,37.66 24.41,25.11 36.62,55.8 36.62,92.07 0,36.27 -12.21,66.96 -36.62,92.07 -24.41,25.11 -54.06,37.66 -88.93,37.66zm92.07 186.24l0 1146.68 -190.42 0 0 -1146.68 190.42 0zm514.75 213.43c39.06,-68.36 96.25,-124.15 171.58,-167.4 75.33,-43.24 161.12,-64.87 257.38,-64.87 103.23,0 196,24.42 278.3,73.24 82.3,48.83 147.17,117.53 194.6,206.11 47.43,88.58 71.15,191.46 71.15,308.64 0,115.79 -23.72,219.02 -71.15,309.69 -47.43,90.68 -112.64,161.12 -195.65,211.34 -83,50.22 -175.42,75.33 -277.25,75.33 -99.05,0 -185.88,-21.62 -260.52,-64.86 -74.63,-43.25 -130.78,-98.35 -168.44,-165.31l0 211.34 -190.42 0 0 -1548.44 190.42 0 0 615.19zm778.4 355.72c0,-86.49 -17.43,-161.82 -52.31,-225.99 -34.87,-64.17 -81.95,-112.99 -141.24,-146.47 -59.29,-33.48 -124.5,-50.22 -195.65,-50.22 -69.75,0 -134.27,17.09 -193.55,51.27 -59.29,34.17 -106.72,83.7 -142.29,148.56 -35.58,64.87 -53.36,139.85 -53.36,224.95 0,86.48 17.78,162.16 53.36,227.03 35.57,64.87 83,114.39 142.29,148.57 59.28,34.17 123.8,51.26 193.55,51.26 71.15,0 136.36,-17.09 195.65,-51.26 59.29,-34.18 106.37,-83.7 141.24,-148.57 34.88,-64.87 52.31,-141.24 52.31,-229.13zm374.56 0c0,-117.18 23.71,-220.06 71.14,-308.64 47.43,-88.58 112.65,-157.28 195.65,-206.11 83,-48.82 175.42,-73.24 277.25,-73.24 100.44,0 187.63,21.63 261.57,64.87 73.93,43.25 129.03,97.65 165.3,163.21l0 -209.24 192.51 0 0 1146.68 -192.51 0 0 -213.43c-37.66,66.96 -93.81,122.41 -168.44,166.35 -74.64,43.94 -161.47,65.91 -260.52,65.91 -101.83,0 -193.9,-25.11 -276.21,-75.33 -82.3,-50.22 -147.17,-120.66 -194.6,-211.34 -47.43,-90.67 -71.14,-193.9 -71.14,-309.69zm970.91 2.1c0,-86.49 -17.44,-161.82 -52.31,-225.99 -34.87,-64.17 -81.96,-113.35 -141.24,-147.52 -59.29,-34.18 -124.51,-51.27 -195.65,-51.27 -71.15,0 -136.01,16.74 -194.6,50.22 -58.59,33.48 -105.32,82.3 -140.2,146.47 -34.87,64.17 -52.31,139.5 -52.31,225.99 0,87.89 17.44,164.26 52.31,229.13 34.88,64.87 81.61,114.39 140.2,148.57 58.59,34.17 123.45,51.26 194.6,51.26 71.14,0 136.36,-17.09 195.65,-51.26 59.28,-34.18 106.37,-83.7 141.24,-148.57 34.87,-64.87 52.31,-140.55 52.31,-227.03zm2452.39 -592.18c89.28,0 168.8,18.48 238.55,55.45 69.75,36.97 124.85,92.42 165.3,166.35 40.46,73.94 60.69,163.92 60.69,269.94l0 675.87 -188.33 0 0 -648.67c0,-114.39 -28.25,-201.93 -84.74,-262.61 -56.5,-60.68 -132.88,-91.02 -229.13,-91.02 -99.05,0 -177.86,31.73 -236.45,95.21 -58.59,63.47 -87.89,155.19 -87.89,275.16l0 631.93 -188.32 0 0 -648.67c0,-114.39 -28.25,-201.93 -84.75,-262.61 -56.5,-60.68 -132.87,-91.02 -229.13,-91.02 -99.04,0 -177.86,31.73 -236.45,95.21 -58.59,63.47 -87.88,155.19 -87.88,275.16l0 631.93 -190.42 0 0 -1146.68 190.42 0 0 165.3c37.66,-59.98 88.23,-106.02 151.7,-138.1 63.48,-32.09 133.57,-48.13 210.3,-48.13 96.25,0 181.35,21.62 255.28,64.87 73.94,43.24 129.04,106.71 165.31,190.41 32.08,-80.91 85.09,-143.68 159.03,-188.32 73.93,-44.64 156.24,-66.96 246.91,-66.96zm705.17 590.08c0,-117.18 23.71,-220.06 71.14,-308.64 47.43,-88.58 112.65,-157.28 195.65,-206.11 83,-48.82 175.42,-73.24 277.25,-73.24 100.44,0 187.63,21.63 261.57,64.87 73.93,43.25 129.03,97.65 165.3,163.21l0 -209.24 192.51 0 0 1146.68 -192.51 0 0 -213.43c-37.66,66.96 -93.81,122.41 -168.44,166.35 -74.64,43.94 -161.47,65.91 -260.52,65.91 -101.83,0 -193.9,-25.11 -276.21,-75.33 -82.3,-50.22 -147.17,-120.66 -194.6,-211.34 -47.43,-90.67 -71.14,-193.9 -71.14,-309.69zm970.91 2.1c0,-86.49 -17.44,-161.82 -52.31,-225.99 -34.87,-64.17 -81.96,-113.35 -141.24,-147.52 -59.29,-34.18 -124.51,-51.27 -195.65,-51.27 -71.15,0 -136.01,16.74 -194.6,50.22 -58.59,33.48 -105.32,82.3 -140.2,146.47 -34.87,64.17 -52.31,139.5 -52.31,225.99 0,87.89 17.44,164.26 52.31,229.13 34.88,64.87 81.61,114.39 140.2,148.57 58.59,34.17 123.45,51.26 194.6,51.26 71.14,0 136.36,-17.09 195.65,-51.26 59.28,-34.18 106.37,-83.7 141.24,-148.57 34.87,-64.87 52.31,-140.55 52.31,-227.03zm613.1 -757.49c-36.27,0 -66.96,-12.55 -92.07,-37.66 -25.11,-25.11 -37.67,-55.8 -37.67,-92.07 0,-36.27 12.56,-66.96 37.67,-92.07 25.11,-25.11 55.8,-37.66 92.07,-37.66 34.87,0 64.52,12.55 88.93,37.66 24.41,25.11 36.62,55.8 36.62,92.07 0,36.27 -12.21,66.96 -36.62,92.07 -24.41,25.11 -54.06,37.66 -88.93,37.66zm92.07 186.24l0 1146.68 -190.42 0 0 -1146.68 190.42 0zm730.27 1165.51c-87.88,0 -166.7,-14.99 -236.45,-44.99 -69.75,-29.99 -124.85,-71.84 -165.3,-125.55 -40.46,-53.7 -62.78,-115.43 -66.96,-185.18l196.69 0c5.58,57.19 32.43,103.93 80.56,140.2 48.13,36.27 111.25,54.4 189.37,54.4 72.54,0 129.74,-16.04 171.59,-48.13 41.85,-32.08 62.77,-72.54 62.77,-121.36 0,-50.22 -22.32,-87.54 -66.96,-111.95 -44.64,-24.41 -113.69,-48.48 -207.16,-72.19 -85.09,-22.32 -154.49,-44.99 -208.2,-68.01 -53.71,-23.01 -99.74,-57.19 -138.1,-102.53 -38.36,-45.34 -57.55,-104.97 -57.55,-178.91 0,-58.59 17.44,-112.29 52.32,-161.12 34.87,-48.82 84.39,-87.53 148.56,-116.13 64.17,-28.6 137.41,-42.9 219.71,-42.9 126.95,0 229.48,32.09 307.6,96.26 78.12,64.17 119.97,152.05 125.55,263.65l-190.42 0c-4.18,-59.98 -28.24,-108.11 -72.19,-144.38 -43.94,-36.27 -102.88,-54.41 -176.81,-54.41 -68.36,0 -122.76,14.65 -163.22,43.95 -40.45,29.29 -60.68,67.65 -60.68,115.08 0,37.67 12.21,68.71 36.62,93.12 24.41,24.41 55.1,43.94 92.07,58.59 36.97,14.65 88.23,31.04 153.8,49.17 82.3,22.32 149.26,44.29 200.88,65.92 51.61,21.62 95.9,54.05 132.87,97.3 36.97,43.24 56.15,99.74 57.54,169.49 0,62.77 -17.43,119.27 -52.31,169.49 -34.87,50.22 -84.05,89.63 -147.52,118.23 -63.47,28.59 -136.36,42.89 -218.67,42.89z"/>
 </g>
</svg>
