<?xml version="1.0" encoding="UTF-8"?>
<!DOCTYPE svg PUBLIC "-//W3C//DTD SVG 1.1//EN" "http://www.w3.org/Graphics/SVG/1.1/DTD/svg11.dtd">
<!-- Creator: CorelDRAW -->
<svg xmlns="http://www.w3.org/2000/svg" xml:space="preserve" width="91.4398mm" height="46.5666mm" version="1.1" style="shape-rendering:geometricPrecision; text-rendering:geometricPrecision; image-rendering:optimizeQuality; fill-rule:evenodd; clip-rule:evenodd"
viewBox="0 0 9143.98 4656.66"
 xmlns:xlink="http://www.w3.org/1999/xlink"
 xmlns:xodm="http://www.corel.com/coreldraw/odm/2003">
 <defs>
  <style type="text/css">
   <![CDATA[
    .fil0 {fill:#FEFEFE;fill-rule:nonzero}
   ]]>
  </style>
 </defs>
 <g id="Camada_x0020_1">
  <metadata id="CorelCorpID_0Corel-Layer"/>
  <path class="fil0" d="M728.48 888.93c0,-48.46 10.94,-91.86 32.82,-130.21 21.87,-38.34 51.75,-68.22 89.62,-89.62 37.88,-21.41 80.34,-32.11 127.39,-32.11 55.04,0 103.27,14.11 144.67,42.34 41.4,28.23 70.33,67.28 86.8,117.15l-113.62 0c-11.29,-23.53 -27.17,-41.17 -47.64,-52.93 -20.46,-11.76 -44.1,-17.64 -70.92,-17.64 -28.7,0 -54.22,6.7 -76.57,20.11 -22.35,13.41 -39.76,32.35 -52.22,56.81 -12.47,24.47 -18.71,53.16 -18.71,86.1 0,32.46 6.24,61.04 18.71,85.74 12.46,24.7 29.87,43.76 52.22,57.17 22.35,13.4 47.87,20.11 76.57,20.11 26.82,0 50.46,-6 70.92,-18 20.47,-11.99 36.35,-29.75 47.64,-53.28l113.62 0c-16.47,50.34 -45.28,89.51 -86.45,117.5 -41.17,28 -89.51,41.99 -145.02,41.99 -47.05,0 -89.51,-10.7 -127.39,-32.11 -37.87,-21.4 -67.75,-51.16 -89.62,-89.27 -21.88,-38.11 -32.82,-81.39 -32.82,-129.85zm868.03 153.14l-196.19 0 -32.46 93.86 -103.74 0 177.13 -493.3 115.04 0 177.13 493.3 -104.44 0 -32.47 -93.86zm-26.81 -79.04l-71.28 -206.07 -71.28 206.07 142.56 0zm328.87 94.57l162.31 0 0 78.33 -261.12 0 0 -492.59 98.81 0 0 414.26zm323.93 0l162.31 0 0 78.33 -261.12 0 0 -492.59 98.81 0 0 414.26zm621.74 83.27c-46.11,0 -88.45,-10.82 -127.03,-32.46 -38.58,-21.65 -69.16,-51.64 -91.75,-89.98 -22.58,-38.35 -33.87,-81.75 -33.87,-130.21 0,-47.99 11.29,-91.15 33.87,-129.5 22.59,-38.34 53.17,-68.33 91.75,-89.98 38.58,-21.64 80.92,-32.46 127.03,-32.46 46.58,0 89.04,10.82 127.38,32.46 38.34,21.65 68.69,51.64 91.04,89.98 22.35,38.35 33.52,81.51 33.52,129.5 0,48.46 -11.17,91.86 -33.52,130.21 -22.35,38.34 -52.81,68.33 -91.39,89.98 -38.58,21.64 -80.92,32.46 -127.03,32.46zm0 -88.21c29.64,0 55.75,-6.71 78.33,-20.12 22.59,-13.41 40.23,-32.58 52.93,-57.51 12.7,-24.94 19.06,-53.87 19.06,-86.81 0,-32.93 -6.36,-61.75 -19.06,-86.45 -12.7,-24.7 -30.34,-43.64 -52.93,-56.81 -22.58,-13.17 -48.69,-19.76 -78.33,-19.76 -29.64,0 -55.87,6.59 -78.69,19.76 -22.82,13.17 -40.58,32.11 -53.28,56.81 -12.7,24.7 -19.06,53.52 -19.06,86.45 0,32.94 6.36,61.87 19.06,86.81 12.7,24.93 30.46,44.1 53.28,57.51 22.82,13.41 49.05,20.12 78.69,20.12zm629.5 -409.32l0 79.74 -205.36 0 0 126.33 157.37 0 0 78.33 -157.37 0 0 208.19 -98.81 0 0 -492.59 304.17 0zm410.02 0c51.75,0 97.27,10.11 136.56,30.34 39.28,20.23 69.63,49.05 91.04,86.45 21.4,37.41 32.11,80.81 32.11,130.21 0,49.4 -10.71,92.57 -32.11,129.5 -21.41,36.93 -51.76,65.51 -91.04,85.74 -39.29,20.23 -84.81,30.35 -136.56,30.35l-172.2 0 0 -492.59 172.2 0zm-3.53 408.61c51.75,0 91.75,-14.12 119.97,-42.34 28.23,-28.23 42.35,-67.99 42.35,-119.27 0,-51.28 -14.12,-91.39 -42.35,-120.33 -28.22,-28.93 -68.22,-43.4 -119.97,-43.4l-69.86 0 0 325.34 69.86 0zm434.72 -408.61l0 304.87c0,33.4 8.71,58.93 26.12,76.57 17.4,17.64 41.87,26.46 73.39,26.46 31.99,0 56.69,-8.82 74.1,-26.46 17.41,-17.64 26.11,-43.17 26.11,-76.57l0 -304.87 99.51 0 0 304.16c0,41.88 -9.06,77.28 -27.17,106.21 -18.11,28.94 -42.34,50.7 -72.69,65.28 -30.35,14.59 -64.1,21.88 -101.27,21.88 -36.7,0 -69.98,-7.29 -99.86,-21.88 -29.88,-14.58 -53.52,-36.34 -70.93,-65.28 -17.4,-28.93 -26.11,-64.33 -26.11,-106.21l0 -304.16 98.8 0zm729.72 0l0 79.74 -131.26 0 0 412.85 -98.8 0 0 -412.85 -131.27 0 0 -79.74 361.33 0zm463.66 0l-166.55 321.1 0 171.49 -98.8 0 0 -171.49 -167.26 -321.1 111.51 0 105.85 225.12 105.16 -225.12 110.09 0z"/>
  <path class="fil0" d="M791.2 2865.1l0 -813.12 189.34 0 336.87 552.92 -99.9 0 327.57 -552.92 189.34 0 2.32 813.12 -211.41 0 -2.32 -491.36 36.01 0 -245.1 411.21 -102.22 0 -252.07 -411.21 44.14 0 0 491.36 -212.57 0zm1517.06 13.94c-63.51,0.77 -122.94,-9.1 -178.31,-29.62 -55.37,-20.52 -103.38,-49.95 -144.04,-88.28 -40.65,-38.34 -72.02,-83.25 -94.09,-134.75 -22.07,-51.5 -33.1,-107.45 -33.1,-167.85 -0.78,-61.18 10.26,-117.13 33.1,-167.85 22.85,-50.72 54.4,-95.25 94.67,-133.59 40.27,-38.33 88.09,-67.95 143.46,-88.86 55.37,-20.91 114.8,-31.36 178.31,-31.36 66.59,-0.78 127,9.49 181.2,30.78 54.21,21.3 101.64,50.92 142.3,88.86 40.66,37.95 72.21,82.48 94.67,133.59 22.46,51.11 33.3,107.25 32.53,168.43 0.77,61.18 -10.07,117.52 -32.53,169.01 -22.46,51.5 -54.01,96.03 -94.67,133.59 -40.66,37.56 -88.09,66.98 -142.3,88.28 -54.2,21.29 -114.61,31.17 -181.2,29.62zm0 -185.86c31.75,-1.55 60.98,-7.74 87.7,-18.58 26.71,-10.84 49.94,-26.53 69.69,-47.05 19.75,-20.52 35.43,-44.91 47.05,-73.18 11.61,-28.26 17.42,-60.21 17.42,-95.83 -0.77,-35.62 -6.78,-67.76 -18,-96.41 -11.23,-28.66 -26.72,-53.05 -46.47,-73.18 -19.75,-20.14 -42.78,-35.82 -69.11,-47.05 -26.33,-11.23 -55.76,-17.23 -88.28,-18 -30.21,1.55 -58.86,7.74 -85.96,18.58 -27.11,10.84 -50.53,26.33 -70.28,46.47 -19.75,20.13 -35.04,44.52 -45.88,73.18 -10.84,28.65 -16.65,60.79 -17.43,96.41 0.78,34.85 6.59,66.79 17.43,95.83 10.84,29.04 26.33,53.63 46.46,73.76 20.14,20.14 43.37,35.82 69.7,47.05 26.33,11.23 54.98,17.23 85.96,18zm574.98 171.92l-1.16 -813.12 384.49 0c89.83,0 168.82,16.65 236.97,49.95 68.15,33.3 121.39,80.15 159.72,140.55 38.33,60.41 57.11,132.42 56.34,216.06 0.77,82.86 -18.01,154.69 -56.34,215.48 -38.33,60.79 -91.57,107.83 -159.72,141.13 -68.15,33.3 -147.14,49.95 -236.97,49.95l-383.33 0zm228.84 -183.53l145.2 0c47.24,0.77 87.89,-7.75 121.97,-25.56 34.07,-17.81 60.79,-43.56 80.15,-77.24 19.36,-33.69 29.42,-73.77 30.2,-120.23 -0.78,-47.24 -10.84,-87.51 -30.2,-120.81 -19.36,-33.3 -46.08,-58.85 -80.15,-76.66 -34.08,-17.81 -74.73,-26.33 -121.97,-25.56l-145.2 -1.16 0 447.22zm939.73 -313.63l378.68 -1.17 -1.16 170.76 -376.36 1.16 -1.16 -170.75zm15.1 320.6l427.47 -1.16 -1.16 177.72 -651.66 0 1.16 -813.12 636.56 0 -2.32 176.56 -407.72 1.16 -2.33 458.84zm555.25 176.56l0 -813.12 371.71 0c74.35,0 138.43,12 192.25,36.01 53.82,24.01 95.44,58.66 124.87,103.96 29.43,45.31 44.14,98.93 44.14,160.88 0,61.18 -14.71,114.03 -44.14,158.56 -29.43,44.53 -71.05,78.6 -124.87,102.22 -53.82,23.62 -117.9,35.43 -192.25,35.43l-243.93 0 102.22 -96.41 0 312.47 -230 0zm502.97 0l-202.11 -296.21 245.09 0 203.28 296.21 -246.26 0zm-272.97 -288.08l-102.22 -105.7 229.99 0c48.02,0 83.83,-10.46 107.45,-31.37 23.62,-20.9 35.43,-49.94 35.43,-87.12 0,-37.94 -11.81,-67.37 -35.43,-88.28 -23.62,-20.91 -59.43,-31.36 -107.45,-31.36l-229.99 0 102.22 -105.71 0 449.54zm630.74 288.08l-1.16 -813.12 189.34 0 448.38 541.31 -88.28 0 -1.16 -541.31 225.35 0 0 813.12 -189.34 0 -448.38 -541.31 89.44 0 0 541.31 -224.19 0zm-4490.74 1249.44l-263.68 -813.12 236.96 0 221.87 703.93 -119.65 0 233.48 -703.93 211.42 0 220.7 703.93 -115 0 228.84 -703.93 219.54 0 -263.68 813.12 -246.26 0 -188.18 -598.22 66.21 0 -196.31 598.22 -246.26 0zm1031.5 0l358.93 -813.12 226.51 0 360.1 813.12 -239.29 0 -281.11 -700.44 90.61 0 -281.11 700.44 -234.64 0zm196.31 -157.98l59.24 -169.59 397.27 0 59.24 169.59 -515.75 0zm814.28 157.98l0 -813.12 371.71 0c74.35,0 138.43,12 192.25,36.01 53.82,24.01 95.44,58.66 124.87,103.96 29.43,45.31 44.14,98.93 44.14,160.88 0,61.18 -14.71,114.03 -44.14,158.56 -29.43,44.53 -71.05,78.6 -124.87,102.22 -53.82,23.62 -117.9,35.43 -192.25,35.43l-243.93 0 102.22 -96.41 0 312.47 -230 0zm502.97 0l-202.11 -296.21 245.09 0 203.28 296.21 -246.26 0zm-272.97 -288.08l-102.22 -105.7 229.99 0c48.02,0 83.83,-10.46 107.45,-31.37 23.62,-20.9 35.43,-49.94 35.43,-87.12 0,-37.94 -11.81,-67.37 -35.43,-88.28 -23.62,-20.91 -59.43,-31.36 -107.45,-31.36l-229.99 0 102.22 -105.71 0 449.54zm842.15 -167.27l376.36 -1.16 -1.16 176.56 -374.03 1.17 -1.17 -176.57zm16.27 455.35l-228.84 0 1.16 -813.12 636.56 0 -2.32 176.56 -405.4 1.16 -1.16 635.4zm387.97 0l358.93 -813.12 226.51 0 360.1 813.12 -239.29 0 -281.11 -700.44 90.61 0 -281.11 700.44 -234.64 0zm196.31 -157.98l59.24 -169.59 397.27 0 59.24 169.59 -515.75 0zm814.28 157.98l0 -813.12 371.71 0c74.35,0 138.43,12 192.25,36.01 53.82,24.01 95.44,58.66 124.87,103.96 29.43,45.31 44.14,98.93 44.14,160.88 0,61.18 -14.71,114.03 -44.14,158.56 -29.43,44.53 -71.05,78.6 -124.87,102.22 -53.82,23.62 -117.9,35.43 -192.25,35.43l-243.93 0 102.22 -96.41 0 312.47 -230 0zm502.97 0l-202.11 -296.21 245.09 0 203.28 296.21 -246.26 0zm-272.97 -288.08l-102.22 -105.7 229.99 0c48.02,0 83.83,-10.46 107.45,-31.37 23.62,-20.9 35.43,-49.94 35.43,-87.12 0,-37.94 -11.81,-67.37 -35.43,-88.28 -23.62,-20.91 -59.43,-31.36 -107.45,-31.36l-229.99 0 102.22 -105.71 0 449.54zm839.83 -209.08l378.68 -1.17 -1.16 170.76 -376.36 1.16 -1.16 -170.75zm15.1 320.6l427.47 -1.16 -1.16 177.72 -651.66 0 1.16 -813.12 636.56 0 -2.32 176.56 -407.72 1.16 -2.33 458.84zm846.82 176.56l0 -144.04 304.34 -284.59c21.68,-20.13 37.75,-37.95 48.2,-53.43 10.46,-15.49 17.43,-29.62 20.91,-42.4 3.49,-12.78 5.23,-24.59 5.23,-35.43 0,-26.33 -8.71,-46.85 -26.14,-61.57 -17.42,-14.71 -43.56,-22.07 -78.4,-22.07 -29.43,0 -56.92,6.59 -82.48,19.75 -25.55,13.17 -46.46,32.91 -62.72,59.24l-170.76 -95.25c30.2,-51.11 73.96,-92.15 131.26,-123.13 57.31,-30.97 125.84,-46.46 205.6,-46.46 62.73,0 117.71,10.06 164.95,30.2 47.24,20.13 84.22,48.79 110.93,85.96 26.72,37.17 40.08,80.92 40.08,131.26 0,26.33 -3.49,52.46 -10.45,78.41 -6.97,25.94 -20.33,53.43 -40.08,82.47 -19.75,29.04 -48.98,61.37 -87.7,96.99l-241.61 223.03 -38.34 -81.31 440.25 0 0 182.37 -633.07 0z"/>
 </g>
</svg>
