<?xml version="1.0" encoding="UTF-8"?>
<!DOCTYPE svg PUBLIC "-//W3C//DTD SVG 1.1//EN" "http://www.w3.org/Graphics/SVG/1.1/DTD/svg11.dtd">
<!-- Creator: CorelDRAW -->
<svg xmlns="http://www.w3.org/2000/svg" xml:space="preserve" width="210mm" height="55mm" version="1.1" style="shape-rendering:geometricPrecision; text-rendering:geometricPrecision; image-rendering:optimizeQuality; fill-rule:evenodd; clip-rule:evenodd"
viewBox="0 0 21000 5500"
 xmlns:xlink="http://www.w3.org/1999/xlink"
 xmlns:xodm="http://www.corel.com/coreldraw/odm/2003">
 <defs>
  <style type="text/css">
   <![CDATA[
    .str1 {stroke:#7CD217;stroke-width:33.87;stroke-miterlimit:22.9256}
    .str0 {stroke:#7CD217;stroke-width:16.93;stroke-miterlimit:22.9256}
    .fil1 {fill:none;fill-rule:nonzero}
    .fil2 {fill:#78C02D}
    .fil0 {fill:#78C02D;fill-rule:nonzero}
   ]]>
  </style>
 </defs>
 <g id="Camada_x0020_1">
  <metadata id="CorelCorpID_0Corel-Layer"/>
  <path class="fil0 str0" d="M7035.78 1985.04l-621.66 1635.1 -248.19 0 -621.66 -1635.1 229.29 0 517.67 1409.9 517.64 -1409.9 226.91 0zm1418.22 943.07c0,40.66 -2.38,83.66 -7.09,129.01l-1035.31 0c7.89,126.68 51.63,225.61 131.19,296.74 79.57,71.17 176.11,106.76 289.55,106.76 92.96,0 170.58,-21.51 232.8,-64.53 62.28,-42.99 105.99,-100.46 131.22,-172.42l231.62 0c-34.64,123.56 -103.99,224.05 -207.99,301.46 -104.01,77.41 -233.23,116.11 -387.65,116.11 -122.92,0 -232.8,-27.35 -329.73,-82.1 -96.9,-54.73 -172.95,-132.55 -228.11,-233.42 -55.14,-100.87 -82.72,-217.77 -82.72,-350.7 0,-132.93 26.79,-249.45 80.36,-349.55 53.57,-100.08 128.81,-177.1 225.73,-231.06 96.91,-53.96 208.4,-80.95 334.47,-80.95 122.92,0 231.63,26.61 326.2,79.77 94.54,53.16 167.42,126.3 218.64,219.33 51.19,93.06 76.82,198.24 76.82,315.55zm-222.17 -44.59c0,-81.33 -18.16,-151.32 -54.37,-209.96 -36.26,-58.64 -85.51,-103.22 -147.76,-133.7 -62.23,-30.5 -131.16,-45.76 -206.83,-45.76 -108.71,0 -201.28,34.42 -277.7,103.23 -76.44,68.81 -120.18,164.2 -131.21,286.19l817.87 0zm720.89 -340.15c37.84,-73.49 91.8,-130.6 161.92,-171.24 70.14,-40.66 155.62,-61 256.46,-61l0 220.51 -56.72 0c-241.1,0 -361.66,129.81 -361.66,389.42l0 699.08 -215.09 0 0 -1285.55 215.09 0 0 208.78zm2311.71 -558.33l0 173.6 -449.12 0 0 1461.5 -215.08 0 0 -1461.5 -451.47 0 0 -173.6 1115.67 0zm479.81 558.33c37.83,-73.49 91.81,-130.6 161.92,-171.24 70.14,-40.66 155.62,-61 256.47,-61l0 220.51 -56.73 0c-241.09,0 -361.66,129.81 -361.66,389.42l0 699.08 -215.08 0 0 -1285.55 215.08 0 0 208.78zm586.22 429.29c0,-131.37 26.79,-246.7 80.36,-346.01 53.57,-99.31 127.24,-176.34 221,-231.06 93.77,-54.75 198.18,-82.13 313.18,-82.13 113.47,0 211.96,24.25 295.47,72.73 83.53,48.48 145.76,109.47 186.73,182.99l0 -234.59 217.46 0 0 1285.55 -217.46 0 0 -239.28c-42.54,75.05 -105.97,137.23 -190.27,186.5 -84.32,49.27 -182.38,73.88 -294.26,73.88 -115.06,0 -219.05,-28.15 -312.03,-84.43 -92.96,-56.31 -166.25,-135.29 -219.82,-236.95 -53.57,-101.67 -80.36,-217.39 -80.36,-347.2zm1096.74 2.36c0,-96.98 -19.69,-181.43 -59.08,-253.37 -39.41,-71.93 -92.57,-127.06 -159.54,-165.37 -66.99,-38.31 -140.63,-57.49 -221.02,-57.49 -80.38,0 -153.62,18.77 -219.82,56.31 -66.17,37.54 -118.97,92.27 -158.36,164.22 -39.41,71.94 -59.1,156.39 -59.1,253.34 0,98.54 19.69,184.15 59.1,256.88 39.39,72.72 92.19,128.24 158.36,166.55 66.2,38.34 139.44,57.49 219.82,57.49 80.39,0 154.03,-19.15 221.02,-57.49 66.97,-38.31 120.13,-93.83 159.54,-166.55 39.39,-72.73 59.08,-157.57 59.08,-254.52zm692.57 -849.21c-40.95,0 -75.62,-14.09 -104,-42.23 -28.37,-28.17 -42.53,-62.56 -42.53,-103.23 0,-40.66 14.16,-75.05 42.53,-103.22 28.38,-28.14 63.05,-42.23 104,-42.23 39.38,0 72.88,14.09 100.46,42.23 27.55,28.17 41.35,62.56 41.35,103.22 0,40.67 -13.8,75.06 -41.35,103.23 -27.58,28.14 -61.08,42.23 -100.46,42.23zm103.99 208.78l0 1285.55 -215.08 0 0 -1285.55 215.08 0zm581.48 -450.42l0 1735.97 -215.08 0 0 -1735.97 215.08 0zm1548.26 1043.94c0,40.66 -2.38,83.66 -7.09,129.01l-1035.31 0c7.86,126.68 51.6,225.61 131.19,296.74 79.57,71.17 176.08,106.76 289.55,106.76 92.96,0 170.58,-21.51 232.8,-64.53 62.28,-42.99 105.97,-100.46 131.22,-172.42l231.62 0c-34.64,123.56 -104.02,224.05 -207.98,301.46 -104.02,77.41 -233.24,116.11 -387.66,116.11 -122.92,0 -232.83,-27.35 -329.73,-82.1 -96.92,-54.73 -172.95,-132.55 -228.11,-233.42 -55.14,-100.87 -82.74,-217.77 -82.74,-350.7 0,-132.93 26.78,-249.45 80.38,-349.55 53.57,-100.08 128.81,-177.1 225.71,-231.06 96.93,-53.96 208.42,-80.95 334.49,-80.95 122.92,0 231.63,26.61 326.2,79.77 94.54,53.16 167.42,126.3 218.64,219.33 51.19,93.06 76.82,198.24 76.82,315.55zm-222.2 -44.59c0,-81.33 -18.13,-151.32 -54.36,-209.96 -36.24,-58.64 -85.48,-103.22 -147.74,-133.7 -62.22,-30.5 -131.19,-45.76 -206.83,-45.76 -108.71,0 -201.28,34.42 -277.72,103.23 -76.42,68.81 -120.15,164.2 -131.19,286.19l817.84 0zm720.92 -340.15c37.82,-73.49 91.8,-130.6 161.92,-171.24 70.11,-40.66 155.62,-61 256.46,-61l0 220.51 -56.72 0c-241.1,0 -361.66,129.81 -361.66,389.42l0 699.08 -215.08 0 0 -1285.55 215.08 0 0 208.78z"/>
  <polyline class="fil1 str1" points="401.21,2907.59 401.21,411.02 18308.8,411.02 "/>
  <polyline class="fil1 str1" points="20558.41,2449.34 20558.41,5100.64 2501.32,5100.64 "/>
  <polygon class="fil2 str0" points="3355.99,2014.98 3355.99,3461.16 4404.02,2738.07 "/>
 </g>
</svg>
